<?xml version="1.0" encoding="utf-8"?>
<!-- Generator: Adobe Illustrator 16.0.4, SVG Export Plug-In . SVG Version: 6.00 Build 0)  -->
<!DOCTYPE svg PUBLIC "-//W3C//DTD SVG 1.1//EN" "http://www.w3.org/Graphics/SVG/1.1/DTD/svg11.dtd">
<svg version="1.1" id="Layer_1" xmlns="http://www.w3.org/2000/svg" xmlns:xlink="http://www.w3.org/1999/xlink" x="0px" y="0px"
	 width="40px" height="40px" viewBox="0 0 40 40" enable-background="new 0 0 40 40" xml:space="preserve">
<g>
	<path fill="none" stroke="#231F20" stroke-linecap="round" stroke-miterlimit="10" d="M30.3,34.002l-19.956-0.063
		c-1.126-0.004-2.047-0.928-2.047-2.054V7.323c0-1.126,0.921-2.047,2.047-2.047h17.738c1.127,0,2.048,0.921,2.048,2.047v18.449"/>
	<polyline fill="none" stroke="#231F20" stroke-linecap="round" stroke-miterlimit="10" points="27.713,28.132 11.309,28.132 
		11.309,8.348 27.137,8.348 27.137,23.433 	"/>
	<path fill="none" stroke="#231F20" stroke-linecap="round" stroke-miterlimit="10" d="M38.999,36.661l-4.094-5.458v-6.22
		c0-2.313-2.158-4.511-4.776-6.744"/>
	<path fill="none" stroke="#231F20" stroke-linecap="round" stroke-miterlimit="10" d="M31.494,27.109l-3.07-3.07
		c-0.566-0.565-1.482-0.565-2.047,0c-0.566,0.563-0.341,1.705,0,2.047l3.07,4.435v1.365c0,1.364,2.729,4.775,2.729,4.775"/>
	<line fill="none" stroke="#231F20" stroke-miterlimit="10" x1="17.252" y1="31.202" x2="21.346" y2="31.202"/>
	<line fill="none" stroke="#231F20" stroke-miterlimit="10" x1="14.437" y1="23.187" x2="23.989" y2="23.187"/>
	<line fill="none" stroke="#231F20" stroke-miterlimit="10" x1="14.437" y1="19.49" x2="23.989" y2="19.49"/>
	<line fill="none" stroke="#231F20" stroke-miterlimit="10" x1="14.437" y1="15.795" x2="23.989" y2="15.795"/>
	<line fill="none" stroke="#231F20" stroke-miterlimit="10" x1="14.437" y1="12.099" x2="19.896" y2="12.099"/>
</g>
</svg>
