<?xml version="1.0" encoding="utf-8"?>
<!-- Generator: Adobe Illustrator 16.0.4, SVG Export Plug-In . SVG Version: 6.00 Build 0)  -->
<!DOCTYPE svg PUBLIC "-//W3C//DTD SVG 1.1//EN" "http://www.w3.org/Graphics/SVG/1.1/DTD/svg11.dtd">
<svg version="1.1" id="Layer_1" xmlns="http://www.w3.org/2000/svg" xmlns:xlink="http://www.w3.org/1999/xlink" x="0px" y="0px"
	 width="40px" height="40px" viewBox="0 0 40 40" enable-background="new 0 0 40 40" xml:space="preserve">
<g>
	<path fill="none" stroke="#231F20" stroke-linecap="round" stroke-linejoin="round" stroke-miterlimit="10" d="M27.77,20.458h1.305
		c2.163,0,3.916,1.754,3.916,3.916c0,2.163-1.753,3.916-3.916,3.916H27.77"/>
	<path fill="none" stroke="#231F20" stroke-linecap="round" stroke-linejoin="round" stroke-miterlimit="10" d="M27.77,32.207
		c0,1.44-1.17,2.61-2.611,2.61H13.41c-1.442,0-2.611-1.17-2.611-2.61V17.848h16.97V32.207z"/>
	<path fill="none" stroke="#231F20" stroke-linecap="round" stroke-linejoin="round" stroke-miterlimit="10" d="M27.614,4.877
		c1.347,2.054-0.649,3.181-1.114,4.284c-0.492,1.168-0.013,2.287,1.156,2.779C31.441,13.536,32.568,6.076,27.614,4.877z"/>
	
		<line fill="none" stroke="#231F20" stroke-linecap="round" stroke-linejoin="round" stroke-miterlimit="10" x1="23.854" y1="17.848" x2="27.259" y2="11.729"/>
	
		<line fill="none" stroke="#231F20" stroke-linecap="round" stroke-linejoin="round" stroke-miterlimit="10" x1="28.605" y1="12.177" x2="26.463" y2="17.847"/>
	<polygon fill="none" stroke="#231F20" stroke-linecap="round" stroke-linejoin="round" stroke-miterlimit="10" points="
		16.021,17.848 12.104,17.848 10.146,13.932 9.494,10.016 12.757,11.974 	"/>
	
		<line fill="none" stroke="#231F20" stroke-linecap="round" stroke-linejoin="round" stroke-miterlimit="10" x1="10.146" y1="13.932" x2="12.757" y2="11.974"/>
	
		<rect x="17.326" y="4.794" fill="none" stroke="#231F20" stroke-linecap="round" stroke-linejoin="round" stroke-miterlimit="10" width="5.222" height="13.054"/>
	
		<line fill="none" stroke="#231F20" stroke-linecap="round" stroke-linejoin="round" stroke-miterlimit="10" x1="22.547" y1="7.404" x2="19.937" y2="7.404"/>
	
		<line fill="none" stroke="#231F20" stroke-linecap="round" stroke-linejoin="round" stroke-miterlimit="10" x1="22.547" y1="10.015" x2="21.242" y2="10.015"/>
	
		<line fill="none" stroke="#231F20" stroke-linecap="round" stroke-linejoin="round" stroke-miterlimit="10" x1="22.547" y1="12.626" x2="19.937" y2="12.626"/>
	
		<line fill="none" stroke="#231F20" stroke-linecap="round" stroke-linejoin="round" stroke-miterlimit="10" x1="22.547" y1="15.237" x2="21.242" y2="15.237"/>
</g>
</svg>
