<?xml version="1.0" encoding="utf-8"?>
<!-- Generator: Adobe Illustrator 16.0.4, SVG Export Plug-In . SVG Version: 6.00 Build 0)  -->
<!DOCTYPE svg PUBLIC "-//W3C//DTD SVG 1.1//EN" "http://www.w3.org/Graphics/SVG/1.1/DTD/svg11.dtd">
<svg version="1.1" id="Layer_1" xmlns="http://www.w3.org/2000/svg" xmlns:xlink="http://www.w3.org/1999/xlink" x="0px" y="0px"
	 width="40px" height="40px" viewBox="0 0 40 40" enable-background="new 0 0 40 40" xml:space="preserve">
<g>
	<path fill="#231F20" d="M10.591,9.922c-0.422,0-0.764,0.341-0.764,0.764c0,0.422,0.342,0.763,0.764,0.763s0.765-0.341,0.765-0.763
		C11.355,10.263,11.013,9.922,10.591,9.922"/>
	<path fill="#231F20" d="M13.646,9.922c-0.422,0-0.765,0.341-0.765,0.764c0,0.422,0.343,0.763,0.765,0.763s0.764-0.341,0.764-0.763
		C14.409,10.263,14.067,9.922,13.646,9.922"/>
	<path fill="#231F20" d="M16.699,9.922c-0.422,0-0.764,0.341-0.764,0.764c0,0.422,0.342,0.763,0.764,0.763
		c0.423,0,0.765-0.341,0.765-0.763C17.464,10.263,17.122,9.922,16.699,9.922"/>
	<polyline fill="none" stroke="#231F20" stroke-linecap="round" stroke-linejoin="round" stroke-miterlimit="10" points="
		12.276,16.384 10.371,18.289 12.276,20.195 	"/>
	<polyline fill="none" stroke="#231F20" stroke-linecap="round" stroke-linejoin="round" stroke-miterlimit="10" points="
		27.35,29.658 29.255,27.753 27.35,25.847 	"/>
	
		<rect x="7.419" y="8.099" fill="none" stroke="#231F20" stroke-linecap="round" stroke-linejoin="round" stroke-miterlimit="10" width="25.111" height="25.111"/>
	
		<line fill="none" stroke="#231F20" stroke-linecap="round" stroke-linejoin="round" stroke-miterlimit="10" x1="7.414" y1="13.558" x2="32.533" y2="13.558"/>
	
		<line fill="none" stroke="#231F20" stroke-linecap="round" stroke-linejoin="round" stroke-miterlimit="10" x1="16.158" y1="18.29" x2="29.255" y2="18.29"/>
	
		<line fill="none" stroke="#231F20" stroke-linecap="round" stroke-linejoin="round" stroke-miterlimit="10" x1="10.694" y1="23.021" x2="29.255" y2="23.021"/>
	
		<line fill="none" stroke="#231F20" stroke-linecap="round" stroke-linejoin="round" stroke-miterlimit="10" x1="10.694" y1="27.752" x2="22.707" y2="27.752"/>
</g>
</svg>
