<?xml version="1.0" encoding="utf-8"?>
<!-- Generator: Adobe Illustrator 16.0.4, SVG Export Plug-In . SVG Version: 6.00 Build 0)  -->
<!DOCTYPE svg PUBLIC "-//W3C//DTD SVG 1.1//EN" "http://www.w3.org/Graphics/SVG/1.1/DTD/svg11.dtd">
<svg version="1.1" id="Layer_1" xmlns="http://www.w3.org/2000/svg" xmlns:xlink="http://www.w3.org/1999/xlink" x="0px" y="0px"
	 width="40px" height="40px" viewBox="0 0 40 40" enable-background="new 0 0 40 40" xml:space="preserve">
<g>
	
		<line fill="none" stroke="#231F20" stroke-linecap="round" stroke-linejoin="round" stroke-miterlimit="10" x1="5.788" y1="12.422" x2="33.763" y2="12.422"/>
	<path fill="#231F20" d="M9.984,8.925c-0.387,0-0.699,0.313-0.699,0.699c0,0.387,0.312,0.7,0.699,0.7c0.386,0,0.699-0.313,0.699-0.7
		C10.684,9.238,10.37,8.925,9.984,8.925"/>
	<path fill="#231F20" d="M12.782,8.925c-0.387,0-0.699,0.313-0.699,0.699c0,0.387,0.312,0.7,0.699,0.7
		c0.386,0,0.699-0.313,0.699-0.7C13.481,9.238,13.168,8.925,12.782,8.925"/>
	<path fill="#231F20" d="M15.579,8.925c-0.387,0-0.699,0.313-0.699,0.699c0,0.387,0.312,0.7,0.699,0.7s0.699-0.313,0.699-0.7
		C16.278,9.238,15.966,8.925,15.579,8.925"/>
	<path fill="none" stroke="#231F20" stroke-linecap="round" stroke-miterlimit="10" d="M18.377,29.207H8.586
		c-1.545,0-2.798-1.253-2.798-2.798V9.624c0-1.545,1.253-2.797,2.798-2.797h22.38c1.545,0,2.797,1.252,2.797,2.797v11.189"/>
	<circle fill="none" stroke="#231F20" stroke-miterlimit="10" cx="29.294" cy="30.334" r="5.323"/>
	
		<line fill="none" stroke="#231F20" stroke-linecap="round" stroke-miterlimit="10" x1="33.063" y1="34.103" x2="37.96" y2="38.999"/>
</g>
</svg>
