<?xml version="1.0" encoding="utf-8"?>
<!-- Generator: Adobe Illustrator 16.0.4, SVG Export Plug-In . SVG Version: 6.00 Build 0)  -->
<!DOCTYPE svg PUBLIC "-//W3C//DTD SVG 1.1//EN" "http://www.w3.org/Graphics/SVG/1.1/DTD/svg11.dtd">
<svg version="1.1" id="Layer_1" xmlns="http://www.w3.org/2000/svg" xmlns:xlink="http://www.w3.org/1999/xlink" x="0px" y="0px"
	 width="40px" height="40px" viewBox="0 0 40 40" enable-background="new 0 0 40 40" xml:space="preserve">
<g>
	<path fill="none" stroke="#231F20" stroke-miterlimit="10" d="M32.303,12.312c-0.896-6.204-9.28-7.606-10.777-7.606L21.07,4.701
		c-10.215,0-11.576,7.015-11.748,9.147c-0.162,1.486-0.803,4.227-1.834,5.256c-0.333,0.334-1.113,1.117-0.725,2.069
		c0.366,0.897,1.325,0.927,1.924,0.933c-0.033,0.159-0.064,0.272-0.092,0.373c-0.054,0.19-0.12,0.429-0.12,0.749
		c0,0.441,0.176,0.809,0.501,1.07c-0.179,0.531-0.045,1.067,0.408,1.514c0.02,0.054,0.055,0.25,0.055,0.966
		c0,2.06,2.027,3.036,3.604,2.782l0.155-0.023c0.321-0.052,0.685-0.109,0.99-0.109c0.427,0,0.54,0.104,0.627,0.223
		c0.193,0.257,0.381,0.463,0.547,0.643c0.501,0.549,0.803,0.879,0.803,2.371c0,1.256,0.167,1.813,0.236,1.989l0.069,0.179
		c0.094,0.246,0.329,0.4,0.581,0.4c0.059,0,0.118-0.008,0.177-0.025l10.543-3.121c0.293-0.086,0.479-0.373,0.44-0.677
		c-0.261-2.04-0.01-5.425,1.555-8.25c0.414-0.747,0.774-1.37,1.095-1.92C32.715,18.047,33.049,17.473,32.303,12.312z"/>
	<circle fill="none" stroke="#231F20" stroke-linejoin="round" stroke-miterlimit="10" cx="20.894" cy="15.025" r="1.895"/>
	<path fill="none" stroke="#231F20" stroke-linejoin="round" stroke-miterlimit="10" d="M25.316,15.025
		c0-0.353-0.047-0.695-0.123-1.023l1.256-0.725l-1.264-2.189l-1.213,0.727c-0.496-0.471-1.094-0.826-1.726-1.027V9.339H19.72v1.45
		c-0.632,0.2-1.319,0.555-1.815,1.026l-1.282-0.727l-1.275,2.189l1.253,0.725c-0.079,0.328-0.127,0.67-0.127,1.023
		s0.044,0.693,0.123,1.023l-1.259,0.725l1.263,2.189l1.303-0.727c0.496,0.471,1.184,0.827,1.816,1.027v1.449h2.527v-1.449
		c0.632-0.2,1.229-0.556,1.727-1.027l1.234,0.727l1.253-2.189l-1.264-0.725C25.275,15.72,25.316,15.378,25.316,15.025z"/>
</g>
</svg>
