<?xml version="1.0" encoding="utf-8"?>
<!-- Generator: Adobe Illustrator 16.0.4, SVG Export Plug-In . SVG Version: 6.00 Build 0)  -->
<!DOCTYPE svg PUBLIC "-//W3C//DTD SVG 1.1//EN" "http://www.w3.org/Graphics/SVG/1.1/DTD/svg11.dtd">
<svg version="1.1" id="Layer_1" xmlns="http://www.w3.org/2000/svg" xmlns:xlink="http://www.w3.org/1999/xlink" x="0px" y="0px"
	 width="555.75px" height="180px" viewBox="0 0 555.75 180" enable-background="new 0 0 555.75 180" xml:space="preserve">
<g id="Layer_2">
	<rect fill="#B9B9B9" width="555.75" height="180"/>
</g>
<g id="Layer_1_1_">
	<g>
		<rect x="310.922" y="106.288" fill="#C6C5C4" width="7.169" height="7.17"/>
		<path fill="#C6C5C4" d="M310.922,129.32c0,6.439-1.169,7.937-4.55,11.314c-2.835,2.837-7.119,7.119-7.119,13.967v1.641h30.506
			v-1.641c0-6.847-4.284-11.131-7.12-13.967c-3.379-3.379-4.548-4.876-4.548-11.314v-11.364h-7.169V129.32L310.922,129.32z"/>
		<polygon fill="#C6C5C4" points="171.227,95.741 169.464,116.879 194.484,116.879 192.723,95.741 		"/>
		<rect x="299.253" y="160.742" fill="#C6C5C4" width="30.506" height="14.947"/>
		<path fill="#C6C5C4" d="M167.132,144.857c0.048,8.143,6.688,14.751,14.842,14.751c8.153,0,14.792-6.608,14.841-14.751
			l-1.956-23.479h-25.77L167.132,144.857z M190.52,128.688c1.799,0,3.261,1.463,3.261,3.261c0,1.797-1.462,3.261-3.261,3.261
			c-1.799,0-3.261-1.464-3.261-3.261C187.259,130.15,188.72,128.688,190.52,128.688z M186.246,139.369
			c1.799,0,3.262,1.463,3.262,3.261s-1.463,3.262-3.262,3.262c-1.798,0-3.261-1.464-3.261-3.262S184.447,139.369,186.246,139.369z
			 M185.234,151.176c0,1.8-1.462,3.262-3.261,3.262s-3.261-1.464-3.261-3.262c0-1.797,1.462-3.26,3.261-3.26
			S185.234,149.378,185.234,151.176z M177.701,124.414c1.799,0,3.261,1.463,3.261,3.262c0,1.797-1.462,3.262-3.261,3.262
			c-1.799,0-3.261-1.465-3.261-3.262C174.439,125.877,175.901,124.414,177.701,124.414z M173.428,137.232
			c1.799,0,3.262,1.463,3.262,3.261s-1.463,3.261-3.262,3.261s-3.262-1.463-3.262-3.261S171.629,137.232,173.428,137.232z"/>
		<path fill="#C6C5C4" d="M122.447,53.172l-1.521-0.521v-24.36h-11.718v24.36l-1.521,0.521
			c-9.196,3.153-15.375,11.802-15.375,21.523v87.18c0,2.487,2.022,4.509,4.508,4.509h36.494c2.486,0,4.508-2.021,4.508-4.509v-87.18
			C137.821,64.974,131.643,56.325,122.447,53.172z M134.214,164.125H95.917v-4.5h38.297V164.125z M134.55,132.022H95.583V93.06
			h38.967V132.022z"/>
		<polygon fill="#C6C5C4" points="468.436,136.557 423.418,136.557 426.736,180 465.117,180 		"/>
		<rect x="100.083" y="97.56" fill="#C6C5C4" width="29.967" height="29.966"/>
		<rect x="109.208" y="11.09" fill="#C6C5C4" width="11.718" height="12.7"/>
		<polygon fill="#C6C5C4" points="470.985,103.185 420.866,103.185 423.073,132.057 468.779,132.057 		"/>
		<polygon fill="#C6C5C4" points="64.168,123.807 26.694,123.807 27.746,134.856 62.868,134.856 		"/>
		<path fill="#C6C5C4" d="M29.373,73.705h18.122l3.606-27.655H19.01l3.326,21.618C22.839,70.939,26.062,73.705,29.373,73.705z"/>
		<path fill="#C6C5C4" d="M60.526,67.667l3.327-21.618H55.64l-3.608,27.655h1.457C56.8,73.705,60.023,70.94,60.526,67.667z"/>
		<polygon fill="#C6C5C4" points="53.721,25.953 15.918,25.953 18.318,41.55 51.687,41.55 		"/>
		<path fill="#C6C5C4" d="M176.614,0v13.611c0,0.969-0.621,1.828-1.54,2.135c-9.206,3.068-13.681,10.459-13.681,22.597v30.439
			c0,0.857,0.699,1.555,1.555,1.555h38.05c0.857,0,1.555-0.698,1.555-1.555V38.343c0-12.138-4.475-19.529-13.681-22.597
			c-0.919-0.307-1.538-1.167-1.538-2.135V0H176.614z M193.389,28.482c1.242,0,2.25,1.008,2.25,2.25v11.416
			c0,1.242-1.008,2.25-2.25,2.25h-22.83c-1.243,0-2.25-1.008-2.25-2.25V30.732c0-1.242,1.007-2.25,2.25-2.25H193.389z"/>
		<path fill="#C6C5C4" d="M28.174,139.356l3.836,40.296c0.011,0.117,0.004,0.233-0.002,0.348h25.55l4.781-40.644H28.174z
			 M32.532,144.88c0-1.692,1.377-3.068,3.069-3.068s3.069,1.376,3.069,3.068c0,1.693-1.377,3.069-3.069,3.069
			S32.532,146.573,32.532,144.88z M39.488,179.047c-1.692,0-3.069-1.376-3.069-3.068s1.377-3.069,3.069-3.069
			s3.069,1.377,3.069,3.069S41.18,179.047,39.488,179.047z M41.432,159.61c-1.692,0-3.069-1.376-3.069-3.068
			s1.377-3.069,3.069-3.069s3.069,1.377,3.069,3.069S43.124,159.61,41.432,159.61z M49.206,169.33c-1.692,0-3.068-1.378-3.068-3.069
			c0-1.692,1.376-3.069,3.068-3.069c1.692,0,3.069,1.377,3.069,3.069C52.275,167.952,50.898,169.33,49.206,169.33z M53.093,151.837
			c-1.692,0-3.069-1.377-3.069-3.067c0-1.693,1.377-3.071,3.069-3.071c1.692,0,3.069,1.378,3.069,3.071
			C56.162,150.46,54.786,151.837,53.093,151.837z"/>
		<polygon fill="#C6C5C4" points="27.521,180 23.653,139.356 20.523,139.356 25.305,180 		"/>
		<polygon fill="#C6C5C4" points="66.943,25.953 58.261,25.953 56.227,41.55 64.545,41.55 		"/>
		<polygon fill="#C6C5C4" points="18.694,123.807 19.994,134.856 23.225,134.856 22.173,123.807 		"/>
		<path fill="#C6C5C4" d="M65.266,0H53.771c0.216,2.996,2.696,5.375,5.748,5.375S65.049,2.996,65.266,0z"/>
		<rect x="172.809" y="32.984" fill="#C6C5C4" width="18.33" height="6.914"/>
		<polygon fill="#C6C5C4" points="398.099,41.454 357.285,41.454 354.63,61.364 400.755,61.364 		"/>
		<path fill="#C6C5C4" d="M466.999,0c0.688,1.969,1.078,4.078,1.078,6.28h-4.265c0-2.246-0.506-4.374-1.406-6.28h-9.002
			l-0.316,1.266l-4.137-1.035L449.009,0h-21.681c-1.403,1.711-2.247,3.898-2.247,6.28h-4.265c0-2.256,0.542-4.383,1.483-6.28
			h-63.969c0.523,1.735,0.812,3.57,0.812,5.474c0,10.487-8.533,19.02-19.022,19.02v-3.995c8.287,0,15.028-6.74,15.028-15.025
			c0-1.933-0.38-3.775-1.048-5.474h-27.96c-0.668,1.698-1.049,3.541-1.049,5.474h-3.994c0-1.903,0.29-3.739,0.811-5.474h-27.217
			l5.493,9.157h42.406l-27.025,45.045V80.32h13.441v3.994h-30.875V80.32h13.439V54.2L284.546,9.157h10.981L290.032,0h-98.198v12.038
			c10.1,4.011,15.219,12.852,15.219,26.306v30.439c0,3.339-2.716,6.055-6.055,6.055h-38.05c-3.339,0-6.055-2.716-6.055-6.055V38.343
			c0-13.454,5.119-22.295,15.221-26.306V0H69.789c-0.208,5.198-4.283,9.412-9.424,9.833l-1.517,11.62h10.719
			c0.06,0,0.115,0.014,0.173,0.018c0.057,0.004,0.112,0,0.168,0.009c0.018,0.002,0.034,0.01,0.052,0.014
			c0.083,0.015,0.162,0.04,0.242,0.063c0.064,0.019,0.129,0.035,0.191,0.06c0.071,0.028,0.136,0.064,0.204,0.099
			c0.064,0.033,0.13,0.064,0.189,0.103c0.059,0.037,0.11,0.082,0.164,0.124c0.06,0.047,0.121,0.092,0.176,0.145
			c0.048,0.047,0.089,0.099,0.133,0.15c0.049,0.058,0.102,0.115,0.146,0.176c0.039,0.056,0.07,0.116,0.104,0.175
			c0.039,0.066,0.078,0.13,0.109,0.2c0.027,0.061,0.046,0.125,0.067,0.188c0.026,0.076,0.053,0.151,0.071,0.229
			c0.014,0.063,0.02,0.127,0.028,0.19c0.011,0.084,0.023,0.167,0.024,0.255c0,0.018,0.006,0.035,0.006,0.051
			c0,0.057-0.012,0.109-0.017,0.165c-0.004,0.06,0,0.117-0.009,0.177l-6.818,44.306c-0.835,5.434-5.986,9.854-11.484,9.854H29.373
			c-5.497,0-10.648-4.42-11.484-9.854l-6.816-44.303c-0.009-0.06-0.005-0.117-0.009-0.177c-0.003-0.055-0.017-0.107-0.017-0.164
			c0-0.018,0.005-0.035,0.006-0.052c0.001-0.086,0.013-0.169,0.025-0.254c0.009-0.063,0.014-0.129,0.028-0.191
			c0.018-0.079,0.045-0.152,0.071-0.228c0.022-0.064,0.041-0.129,0.069-0.19c0.03-0.069,0.07-0.131,0.106-0.196
			c0.035-0.061,0.067-0.123,0.107-0.18c0.043-0.061,0.094-0.115,0.141-0.171c0.046-0.051,0.089-0.107,0.139-0.155
			c0.053-0.052,0.114-0.096,0.172-0.142c0.055-0.044,0.108-0.089,0.167-0.127c0.06-0.039,0.124-0.069,0.187-0.101
			c0.069-0.036,0.135-0.072,0.206-0.101c0.062-0.023,0.126-0.04,0.191-0.059c0.08-0.024,0.159-0.047,0.242-0.063
			c0.018-0.003,0.034-0.01,0.052-0.014c0.058-0.009,0.115-0.004,0.172-0.009s0.111-0.017,0.169-0.017h41.013L55.904,9.21
			C52.135,7.786,49.413,4.22,49.246,0H0v180h20.774l-6.843-58.181c-0.075-0.638,0.126-1.277,0.553-1.757
			c0.427-0.48,1.039-0.756,1.682-0.756h5.58l-1.019-10.701c-0.445-4.63-4.286-8.122-8.936-8.122h-7.29
			c-1.242,0-2.25-1.009-2.25-2.25c0-1.243,1.008-2.25,2.25-2.25h7.289c6.979,0,12.748,5.24,13.416,12.193l1.06,11.13h40.433
			c0.643,0,1.255,0.275,1.682,0.756c0.426,0.479,0.628,1.119,0.553,1.757L62.089,180h117.634v-16.033
			c-9.607-1.121-17.091-9.299-17.091-19.2c0-0.062,0.002-0.124,0.008-0.187l4.273-51.275c0.098-1.167,1.072-2.063,2.242-2.063
			h25.638c1.17,0,2.146,0.896,2.244,2.063l4.271,51.275c0.005,0.063,0.007,0.124,0.007,0.187c0,9.903-7.484,18.08-17.092,19.2V180
			h110.53v-2.061v-19.447v-3.891c0-8.71,5.489-14.199,8.438-17.147c2.739-2.737,3.231-3.229,3.231-8.133v-13.613v-11.67
			c0-1.241,1.009-2.25,2.25-2.25h11.669c1.242,0,2.25,1.009,2.25,2.25v11.67v13.613c0,4.903,0.493,5.396,3.229,8.133
			c2.949,2.948,8.438,8.438,8.438,17.147v3.891v19.447V180h87.964l-6.026-78.894c-0.048-0.626,0.166-1.243,0.593-1.702
			c0.426-0.458,1.023-0.721,1.65-0.721h54.974c0.626,0,1.225,0.262,1.65,0.721s0.639,1.076,0.592,1.702L469.631,180h86.119V0
			H466.999z M37.545,111.021c-1.692,0-3.069-1.378-3.069-3.07c0-1.691,1.377-3.069,3.069-3.069c1.691,0,3.069,1.378,3.069,3.069
			C40.614,109.644,39.235,111.021,37.545,111.021z M49.206,116.851c-1.692,0-3.068-1.378-3.068-3.069
			c0-1.692,1.376-3.068,3.068-3.068c1.692,0,3.069,1.376,3.069,3.068C52.275,115.473,50.898,116.851,49.206,116.851z
			 M55.036,107.132c-1.692,0-3.069-1.376-3.069-3.067c0-1.693,1.377-3.069,3.069-3.069s3.069,1.377,3.069,3.069
			S56.728,107.132,55.036,107.132z M142.321,161.875c0,4.968-4.041,9.011-9.008,9.011H96.82c-4.967,0-9.008-4.043-9.008-9.011
			v-87.18c0-11.099,6.727-21.031,16.896-25.208V28.291h-2.482v-4.5h2.482V6.59h20.718v17.2h1.805v4.5h-1.805v21.197
			c10.169,4.176,16.895,14.109,16.895,25.208V161.875L142.321,161.875z M275.098,149.46c0,4.399-8.611,6.628-25.596,6.628
			c-16.982,0-25.595-2.229-25.595-6.628V73.591c0-7.495,5.272-15.749,9.508-22.382c2.383-3.729,5.083-7.958,5.083-9.718V18.145
			c0-1.243,1.008-2.25,2.25-2.25h17.509c1.242,0,2.25,1.007,2.25,2.25V41.49c0,1.761,2.7,5.989,5.083,9.718
			c4.236,6.633,9.508,14.887,9.508,22.382V149.46z M379.942,98.316v32.215h9.957c1.241,0,2.25,1.008,2.25,2.25
			s-1.009,2.25-2.25,2.25h-24.412c-1.241,0-2.25-1.008-2.25-2.25s1.009-2.25,2.25-2.25h9.956V98.316
			c-14.774-1.151-26.446-13.533-26.446-28.599c0-0.101,0.007-0.2,0.021-0.298l4.07-30.514c0.148-1.117,1.102-1.952,2.229-1.952
			h44.754c1.127,0,2.081,0.834,2.229,1.952l4.069,30.514c0.013,0.099,0.021,0.198,0.021,0.298
			C406.389,84.782,394.717,97.164,379.942,98.316z M446.667,51.001V78.01h12.783v4.265h-29.835V78.01H442.4V51.001
			c-14.129-1.07-25.292-12.658-25.292-26.761c0-4.783,1.303-9.481,3.768-13.584l0.622-1.036h46.071l0.622,1.036
			c2.464,4.103,3.767,8.801,3.767,13.584C471.958,38.343,460.795,49.931,446.667,51.001z M532.659,21.507
			c1.546,0,2.803,1.256,2.803,2.801c0,1.545-1.257,2.802-2.803,2.802c-1.545,0-2.801-1.257-2.801-2.802
			C529.857,22.763,531.114,21.507,532.659,21.507z M527.607,33.265c0,1.545-1.257,2.802-2.802,2.802
			c-1.546,0-2.803-1.257-2.803-2.802c0-1.545,1.257-2.801,2.803-2.801C526.351,30.464,527.607,31.72,527.607,33.265z
			 M523.702,17.028c1.544,0,2.801,1.257,2.801,2.801c0,1.546-1.257,2.803-2.801,2.803c-1.546,0-2.802-1.257-2.802-2.803
			C520.899,18.285,522.156,17.028,523.702,17.028z M547.199,116.125c0,0.595-0.235,1.164-0.656,1.584l-6.719,6.718
			c-0.42,0.42-0.988,0.657-1.583,0.657h-40.309c-0.595,0-1.164-0.237-1.583-0.657l-6.72-6.718c-0.421-0.42-0.656-0.989-0.656-1.584
			V55.66c0-0.594,0.235-1.164,0.656-1.583l9.615-9.613h-1.312c-1.238,0-2.239-1.002-2.239-2.239c0-1.237,1.002-2.239,2.239-2.239
			h6.712c0.003,0,0.004,0,0.006,0h1.312l-5.135-5.136c-0.872-0.874-0.872-2.292,0-3.166c0.875-0.875,2.292-0.875,3.166,0
			l8.302,8.301h19.229c0.002,0,0.003,0,0.005,0h6.714c1.237,0,2.238,1.001,2.238,2.239c0,1.236-1.002,2.239-2.238,2.239h-1.312
			l9.614,9.613c0.42,0.42,0.655,0.989,0.655,1.583L547.199,116.125L547.199,116.125z"/>
		<path fill="#C6C5C4" d="M354.03,65.864l-0.535,4c0.079,13.275,10.902,24.049,24.196,24.049c13.295,0,24.118-10.774,24.197-24.049
			l-0.535-4H354.03z"/>
		<path fill="#C6C5C4" d="M431.688,13.887h-7.739c-1.688,3.185-2.574,6.741-2.574,10.354c0,9.402,5.929,17.474,14.326,20.868
			c-3.104-4.885-5.057-12.354-5.057-20.868C430.644,20.671,431.008,17.147,431.688,13.887z"/>
		<path fill="#C6C5C4" d="M452.997,13.887h-16.928c-0.747,3.211-1.161,6.742-1.161,10.354c0,13.302,5.068,22.575,9.618,22.583
			c0.004,0,0.006,0,0.008,0s0.005,0,0.009,0c4.55-0.009,9.616-9.281,9.616-22.583C454.158,20.625,453.744,17.092,452.997,13.887z"/>
		<path fill="#C6C5C4" d="M256.007,41.49v-9.422h-13.009v9.422c0,3.075-2.555,7.075-5.791,12.141c-3.92,6.138-8.8,13.778-8.8,19.959
			v75.409c1.594,1.102,8.97,2.589,21.095,2.589c12.126,0,19.501-1.486,21.096-2.589V73.591c0-6.181-4.88-13.821-8.8-19.959
			C258.562,48.566,256.007,44.564,256.007,41.49z"/>
		<path fill="#C6C5C4" d="M457.38,13.887c0.68,3.259,1.044,6.781,1.044,10.354c0,8.515-1.952,15.984-5.056,20.868
			c8.399-3.395,14.326-11.465,14.326-20.868c0-3.613-0.887-7.169-2.574-10.354H457.38z"/>
		<polygon fill="#C6C5C4" points="505.578,44.462 493.453,56.587 493.453,115.198 498.859,120.604 537.314,120.604 542.722,115.198 
			542.722,56.587 530.598,44.462 		"/>
		<rect x="242.998" y="20.395" fill="#C6C5C4" width="13.009" height="7.172"/>
		<polygon fill="#C6C5C4" points="291.6,13.15 298.382,24.459 304.708,24.459 297.923,13.15 		"/>
		<polygon fill="#C6C5C4" points="307.105,28.454 300.779,28.454 313.567,49.767 326.355,28.454 311.764,28.454 317.312,37.698 
			313.885,39.753 		"/>
		<polygon fill="#C6C5C4" points="335.538,13.15 302.581,13.15 309.366,24.459 328.753,24.459 		"/>
	</g>
</g>
</svg>
