<?xml version="1.0" encoding="UTF-8" standalone="no"?>
<svg xmlns="http://www.w3.org/2000/svg" xmlns:xlink="http://www.w3.org/1999/xlink" xmlns:sketch="http://www.bohemiancoding.com/sketch/ns" width="300px" height="300px" viewBox="0 0 76 76">
  <!-- Generator: Sketch 3.0.4 (8053) - http://www.bohemiancoding.com/sketch -->
  <title>Untitled 4</title>
  <desc>Created with Sketch.</desc>
  <defs>
    <path id="path-1" d="M38,0 C58.986,0 76.001,17.014 76.001,38 C76.001,58.986 58.986,76.002 38,76.002 C17.014,76.002 0,58.986 0,38 C0,17.014 17.014,0 38,0 L38,0 L38,0 Z"></path>
    <path id="path-3" d="M62.498,46.945 C62.498,47.131 62.437,47.287 62.317,47.416 C62.196,47.547 62.044,47.611 61.859,47.611 L48.32,47.611 C48.134,47.611 47.977,47.547 47.848,47.416 C47.717,47.287 47.653,47.131 47.653,46.945 L47.653,36.818 C47.653,36.615 47.717,36.453 47.848,36.332 C47.977,36.213 48.134,36.153 48.32,36.153 L51.483,36.153 C51.667,36.153 51.824,36.087 51.955,35.958 C52.084,35.829 52.148,35.672 52.148,35.486 L52.148,33.71 C52.148,33.526 52.084,33.374 51.955,33.252 C51.824,33.132 51.667,33.071 51.483,33.071 L41.272,33.071 C41.086,33.071 40.929,33.132 40.8,33.252 C40.67,33.373 40.606,33.525 40.606,33.71 L40.606,35.486 C40.606,35.672 40.67,35.829 40.8,35.958 C40.929,36.087 41.086,36.153 41.272,36.153 L43.909,36.153 C44.093,36.153 44.25,36.213 44.379,36.332 C44.51,36.454 44.574,36.615 44.574,36.818 L44.574,46.945 C44.574,47.131 44.51,47.287 44.379,47.416 C44.25,47.547 44.093,47.611 43.909,47.611 L41.272,47.611 C41.086,47.611 40.929,47.675 40.8,47.804 C40.67,47.935 40.606,48.091 40.606,48.277 L40.606,50.025 C40.606,50.209 40.67,50.367 40.8,50.496 C40.929,50.627 41.086,50.691 41.272,50.691 L64.939,50.691 C65.125,50.691 65.282,50.627 65.411,50.496 C65.54,50.367 65.606,50.209 65.606,50.025 L65.606,46.113 C65.606,45.927 65.54,45.771 65.411,45.64 C65.282,45.511 65.125,45.447 64.939,45.447 L63.164,45.447 C62.978,45.447 62.82,45.511 62.691,45.64 C62.562,45.771 62.498,45.927 62.498,46.113 L62.498,46.945 L62.498,46.945 Z"></path>
    <path id="path-5" d="M30.256,25.834 C30.072,25.834 29.913,25.894 29.784,26.015 C29.655,26.135 29.591,26.287 29.591,26.473 L29.591,28.249 C29.591,28.435 29.655,28.592 29.784,28.721 C29.913,28.85 30.072,28.914 30.256,28.914 L32.892,28.914 C33.097,28.914 33.257,28.976 33.378,29.095 C33.497,29.216 33.559,29.376 33.559,29.581 L33.559,32.661 C33.559,32.847 33.497,33.004 33.378,33.133 C33.257,33.262 33.096,33.326 32.892,33.326 L19.019,33.326 C18.835,33.326 18.676,33.262 18.547,33.133 C18.418,33.004 18.354,32.847 18.354,32.661 L18.354,29.581 C18.354,29.376 18.418,29.216 18.547,29.095 C18.676,28.975 18.835,28.914 19.019,28.914 L21.655,28.914 C21.841,28.914 21.998,28.85 22.127,28.721 C22.256,28.592 22.322,28.435 22.322,28.249 L22.322,26.473 C22.322,26.287 22.256,26.135 22.127,26.015 C21.998,25.894 21.841,25.834 21.655,25.834 L11.971,25.834 C11.785,25.834 11.628,25.894 11.499,26.015 C11.37,26.135 11.306,26.287 11.306,26.473 L11.306,28.249 C11.306,28.435 11.37,28.592 11.499,28.721 C11.628,28.85 11.785,28.914 11.971,28.914 L14.607,28.914 C14.793,28.914 14.95,28.976 15.079,29.095 C15.208,29.216 15.274,29.376 15.274,29.581 L15.274,39.708 C15.274,39.894 15.208,40.05 15.079,40.179 C14.95,40.31 14.793,40.374 14.607,40.374 L11.971,40.374 C11.785,40.374 11.628,40.438 11.499,40.567 C11.37,40.696 11.306,40.854 11.306,41.04 L11.306,42.788 C11.306,42.974 11.37,43.13 11.499,43.259 C11.628,43.39 11.785,43.454 11.971,43.454 L21.655,43.454 C21.841,43.454 21.998,43.39 22.127,43.259 C22.256,43.13 22.322,42.974 22.322,42.788 L22.322,41.04 C22.322,40.854 22.256,40.696 22.127,40.567 C21.998,40.438 21.841,40.374 21.655,40.374 L19.019,40.374 C18.835,40.374 18.676,40.31 18.547,40.179 C18.418,40.05 18.354,39.894 18.354,39.708 L18.354,36.628 C18.354,36.442 18.418,36.285 18.547,36.156 C18.676,36.027 18.835,35.961 19.019,35.961 L32.892,35.961 C33.097,35.961 33.257,36.027 33.378,36.156 C33.497,36.285 33.559,36.442 33.559,36.628 L33.559,39.708 C33.559,39.894 33.497,40.05 33.378,40.179 C33.257,40.31 33.096,40.374 32.892,40.374 L30.256,40.374 C30.072,40.374 29.913,40.438 29.784,40.567 C29.655,40.696 29.591,40.854 29.591,41.04 L29.591,42.788 C29.591,42.974 29.655,43.13 29.784,43.259 C29.913,43.39 30.072,43.454 30.256,43.454 L39.968,43.454 C40.152,43.454 40.309,43.39 40.44,43.259 C40.569,43.13 40.633,42.974 40.633,42.788 L40.633,41.04 C40.633,40.854 40.569,40.696 40.44,40.567 C40.309,40.438 40.152,40.374 39.968,40.374 L37.303,40.374 C37.119,40.374 36.967,40.31 36.845,40.179 C36.725,40.05 36.666,39.894 36.666,39.708 L36.666,29.58 C36.666,29.375 36.726,29.215 36.845,29.094 C36.966,28.974 37.118,28.913 37.303,28.913 L39.968,28.913 C40.152,28.913 40.309,28.849 40.44,28.72 C40.569,28.591 40.633,28.434 40.633,28.248 L40.633,26.472 C40.633,26.286 40.569,26.134 40.44,26.014 C40.309,25.893 40.152,25.833 39.968,25.833 L30.256,25.833 L30.256,25.834 L30.256,25.834 Z"></path>
  </defs>
  <g id="Page-1" stroke="none" stroke-width="1" fill="none" fill-rule="evenodd" sketch:type="MSPage">
    <mask id="mask-2" sketch:name="circle" fill="white">
      <use xlink:href="#path-1"></use>
    </mask>
    <use id="circle" fill="#F8F8F8" sketch:type="MSShapeGroup" xlink:href="#path-1"></use>
    <mask id="mask-4" sketch:name="l" fill="white">
      <use xlink:href="#path-3"></use>
    </mask>
    <use id="l" fill="#6B6A6A" sketch:type="MSShapeGroup" xlink:href="#path-3"></use>
    <mask id="mask-6" sketch:name="h" fill="white">
      <use xlink:href="#path-5"></use>
    </mask>
    <use id="h" fill="#6B6A6A" sketch:type="MSShapeGroup" xlink:href="#path-5"></use>
  </g>
</svg>
