<?xml version="1.0" encoding="utf-8"?>
<!-- Generator: Adobe Illustrator 16.0.4, SVG Export Plug-In . SVG Version: 6.00 Build 0)  -->
<!DOCTYPE svg PUBLIC "-//W3C//DTD SVG 1.1//EN" "http://www.w3.org/Graphics/SVG/1.1/DTD/svg11.dtd">
<svg version="1.1" id="Layer_1" xmlns="http://www.w3.org/2000/svg" xmlns:xlink="http://www.w3.org/1999/xlink" x="0px" y="0px"
	 width="300px" height="125px" viewBox="0 0 300 125" enable-background="new 0 0 300 125" xml:space="preserve">
<text transform="matrix(1 0 0 1 113.6133 46.2891)" font-family="'SouthernAirePersonalUseOnly'" font-size="32.4527">Happy</text>
<g>
	<defs>
		<rect id="SVGID_1_" y="0.872" width="300" height="123.256"/>
	</defs>
	<clipPath id="SVGID_2_">
		<use xlink:href="#SVGID_1_"  overflow="visible"/>
	</clipPath>
	<g clip-path="url(#SVGID_2_)">
		<text transform="matrix(1 0 0 1 84.668 120.1611)"><tspan x="0" y="0" font-family="'Turnpike'" font-size="11.7066" letter-spacing="2">SINCE 2</tspan><tspan x="88.653" y="0" font-family="'Turnpike'" font-size="11.7066" letter-spacing="2">0</tspan><tspan x="103.544" y="0" font-family="'Turnpike'" font-size="11.7066" letter-spacing="2">0</tspan><tspan x="118.446" y="0" font-family="'Turnpike'" font-size="11.7066">6</tspan></text>
	</g>
</g>
<text transform="matrix(1 0 0 1 17.1123 92.8398)"><tspan x="0" y="0" font-family="'SedgwickCo'" font-size="44.4849" letter-spacing="6">LA</tspan><tspan x="108.276" y="0" font-family="'SedgwickCo'" font-size="44.4849" letter-spacing="3">G</tspan><tspan x="160.367" y="0" font-family="'SedgwickCo'" font-size="44.4849" letter-spacing="6">E</tspan><tspan x="212.325" y="0" font-family="'SedgwickCo'" font-size="44.4849">R</tspan></text>
<g>
	<defs>
		<rect id="SVGID_3_" width="300" height="125"/>
	</defs>
	<clipPath id="SVGID_4_">
		<use xlink:href="#SVGID_3_"  overflow="visible"/>
	</clipPath>
	
		<line clip-path="url(#SVGID_4_)" fill="none" stroke="#FBD335" stroke-miterlimit="10" x1="71.672" y1="39.758" x2="0" y2="39.758"/>
	
		<line clip-path="url(#SVGID_4_)" fill="none" stroke="#FBD335" stroke-miterlimit="10" x1="300" y1="39.758" x2="228.328" y2="39.758"/>
	
		<line clip-path="url(#SVGID_4_)" fill="none" stroke="#FBD335" stroke-miterlimit="10" x1="71.672" y1="118.115" x2="0" y2="118.115"/>
	
		<line clip-path="url(#SVGID_4_)" fill="none" stroke="#FBD335" stroke-miterlimit="10" x1="300" y1="118.115" x2="228.328" y2="118.115"/>
</g>
<text transform="matrix(0.98 -0.1992 0.1992 0.98 83.0557 17.6855)" font-family="'Montserrat-Bold'" font-size="11.7066">E</text>
<text transform="matrix(0.9859 -0.1675 0.1675 0.9859 91.0771 16.0513)" font-family="'Montserrat-Bold'" font-size="11.7066">N</text>
<text transform="matrix(0.9903 -0.1391 0.1391 0.9903 101.0425 14.3877)" font-family="'Montserrat-Bold'" font-size="11.7066">J</text>
<text transform="matrix(0.9938 -0.1115 0.1115 0.9938 108.0024 13.3955)" font-family="'Montserrat-Bold'" font-size="11.7066">O</text>
<g>
	<defs>
		<rect id="SVGID_5_" width="300" height="125"/>
	</defs>
	<clipPath id="SVGID_6_">
		<use xlink:href="#SVGID_5_"  overflow="visible"/>
	</clipPath>
	<g clip-path="url(#SVGID_6_)">
		<text transform="matrix(0.9826 -0.0846 0.0834 0.9965 117.8569 11.6006)" font-family="'Montserrat-Bold'" font-size="11.8711">Y</text>
	</g>
	<g clip-path="url(#SVGID_6_)">
		<text transform="matrix(0.984 -0.0661 0.0652 0.9979 125.6235 10.9551)" font-family="'Montserrat-Bold'" font-size="11.8714">I</text>
	</g>
	<g clip-path="url(#SVGID_6_)">
		<text transform="matrix(0.9851 -0.0444 0.0438 0.999 129.9961 10.6357)" font-family="'Montserrat-Bold'" font-size="11.8719">N</text>
	</g>
	<g clip-path="url(#SVGID_6_)">
		<text transform="matrix(0.9859 -0.016 0.0157 0.9999 140.0898 10.1919)" font-family="'Montserrat-Bold'" font-size="11.8721">G</text>
	</g>
	<g clip-path="url(#SVGID_6_)">
		<text transform="matrix(0.986 0.0044 -0.0043 1 149.415 10.0713)" font-family="'Montserrat-Bold'" font-size="11.8722"> </text>
	</g>
	<g clip-path="url(#SVGID_6_)">
		<text transform="matrix(0.9859 0.0199 -0.0196 0.9998 153.0469 10.0698)" font-family="'Montserrat-Bold'" font-size="11.8721">E</text>
	</g>
	<g clip-path="url(#SVGID_6_)">
		<text transform="matrix(0.9851 0.0446 -0.0439 0.999 161.2402 10.2373)" font-family="'Montserrat-Bold'" font-size="11.8719">V</text>
	</g>
	<g clip-path="url(#SVGID_6_)">
		<text transform="matrix(0.9837 0.0697 -0.0687 0.9976 169.8477 10.6357)" font-family="'Montserrat-Bold'" font-size="11.8714">E</text>
	</g>
	<g clip-path="url(#SVGID_6_)">
		<text transform="matrix(0.9816 0.096 -0.0947 0.9955 178.0039 11.2163)" font-family="'Montserrat-Bold'" font-size="11.8707">R</text>
	</g>
</g>
<text transform="matrix(0.9925 0.1218 -0.1218 0.9925 186.8223 12.7949)" font-family="'Montserrat-Bold'" font-size="11.7066">Y</text>
<text transform="matrix(0.9901 0.1402 -0.1402 0.9901 194.5371 13.7666)" font-family="'Montserrat-Bold'" font-size="11.7065"> </text>
<text transform="matrix(0.9871 0.1603 -0.1603 0.9871 198.1191 14.2539)" font-family="'Montserrat-Bold'" font-size="11.7065">B</text>
<text transform="matrix(0.9832 0.1825 -0.1825 0.9832 206.6191 15.6646)" font-family="'Montserrat-Bold'" font-size="11.7066">I</text>
<text transform="matrix(0.979 0.2037 -0.2037 0.979 210.9473 16.4551)" font-family="'Montserrat-Bold'" font-size="11.7065">T</text>
</svg>
