<?xml version="1.0" encoding="utf-8"?>
<!-- Generator: Adobe Illustrator 18.0.0, SVG Export Plug-In . SVG Version: 6.00 Build 0)  -->
<!DOCTYPE svg PUBLIC "-//W3C//DTD SVG 1.1//EN" "http://www.w3.org/Graphics/SVG/1.1/DTD/svg11.dtd">
<svg version="1.1" id="Layer_1" xmlns="http://www.w3.org/2000/svg" xmlns:xlink="http://www.w3.org/1999/xlink" x="0px" y="0px"
	 viewBox="0 0 25.3 25.3" enable-background="new 0 0 25.3 25.3" xml:space="preserve">
<g>
	<path fill="none" stroke="#8F4923" stroke-width="1.3" stroke-linejoin="round" stroke-miterlimit="10" d="M8.9,18.5l9.6-9.6
		c1.5,0.6,3.2,0.3,4.4-0.9c1.2-1.2,1.5-2.9,0.9-4.3l-1.9,2h-2.1V3.5l1.9-1.9c-1.5-0.6-3.2-0.3-4.4,0.9c-1.2,1.2-1.5,2.9-0.9,4.4
		l-9.6,9.6c-1.5-0.6-3.2-0.3-4.4,0.9c-1.2,1.2-1.5,2.9-0.9,4.4l1.9-1.9h2.3v2.1l-2,1.9c1.5,0.6,3.2,0.3,4.4-0.9
		C9.3,21.7,9.5,20,8.9,18.5z"/>
	<path fill="none" stroke="#8F4923" stroke-width="1.3" stroke-linejoin="round" stroke-miterlimit="10" d="M12.7,10.5L8.9,6.8
		c0.6-1.5,0.3-3.2-0.9-4.4C6.9,1.2,5.2,0.9,3.8,1.6l2,1.9v2.3H3.5l-1.9-2C0.9,5.2,1.2,6.9,2.4,8.1c1.2,1.2,2.9,1.5,4.4,0.8l3.7,3.7"
		/>
	<path fill="none" stroke="#8F4923" stroke-width="1.3" stroke-linejoin="round" stroke-miterlimit="10" d="M12.7,14.8l3.7,3.7
		c-0.6,1.5-0.3,3.2,0.9,4.4c1.2,1.2,2.9,1.5,4.4,0.9l-1.9-1.9v-2.1h2.1l1.9,1.9c0.6-1.5,0.3-3.2-0.9-4.4c-1.2-1.2-2.9-1.5-4.4-0.9
		l-3.7-3.7"/>
</g>
</svg>
