<?xml version="1.0" encoding="utf-8"?>
<!-- Generator: Adobe Illustrator 18.0.0, SVG Export Plug-In . SVG Version: 6.00 Build 0)  -->
<!DOCTYPE svg PUBLIC "-//W3C//DTD SVG 1.1//EN" "http://www.w3.org/Graphics/SVG/1.1/DTD/svg11.dtd">
<svg version="1.1" id="Layer_1" xmlns="http://www.w3.org/2000/svg" xmlns:xlink="http://www.w3.org/1999/xlink" x="0px" y="0px"
	 viewBox="0 0 25.7 25.7" enable-background="new 0 0 25.7 25.7" xml:space="preserve">
<g>
	
		<line fill="none" stroke="#8F4923" stroke-width="1.3" stroke-linecap="round" stroke-linejoin="round" stroke-miterlimit="10" x1="4.3" y1="4.3" x2="15.3" y2="4.3"/>
	
		<rect x="4.3" y="7.3" fill="none" stroke="#8F4923" stroke-width="1.3" stroke-linecap="round" stroke-linejoin="round" stroke-miterlimit="10" width="5" height="6"/>
	
		<line fill="none" stroke="#8F4923" stroke-width="1.3" stroke-linecap="round" stroke-linejoin="round" stroke-miterlimit="10" x1="12.3" y1="8.6" x2="15.3" y2="8.6"/>
	
		<line fill="none" stroke="#8F4923" stroke-width="1.3" stroke-linecap="round" stroke-linejoin="round" stroke-miterlimit="10" x1="11.3" y1="11" x2="15.3" y2="11"/>
	
		<line fill="none" stroke="#8F4923" stroke-width="1.3" stroke-linecap="round" stroke-linejoin="round" stroke-miterlimit="10" x1="11.3" y1="13.3" x2="15.3" y2="13.3"/>
	
		<line fill="none" stroke="#8F4923" stroke-width="1.3" stroke-linecap="round" stroke-linejoin="round" stroke-miterlimit="10" x1="4.3" y1="15.6" x2="15.3" y2="15.6"/>
	
		<line fill="none" stroke="#8F4923" stroke-width="1.3" stroke-linecap="round" stroke-linejoin="round" stroke-miterlimit="10" x1="4.3" y1="17.9" x2="15.3" y2="17.9"/>
	
		<line fill="none" stroke="#8F4923" stroke-width="1.3" stroke-linecap="round" stroke-linejoin="round" stroke-miterlimit="10" x1="4.3" y1="20.3" x2="15.3" y2="20.3"/>
	<path fill="none" stroke="#8F4923" stroke-width="1.3" stroke-linecap="round" stroke-linejoin="round" stroke-miterlimit="10" d="
		M20.3,6.3h2v15c0,0.6-0.4,1-1,1c-0.6,0-1-0.4-1-1V2.8h-2v2"/>
	<path fill="none" stroke="#8F4923" stroke-width="1.3" stroke-linecap="round" stroke-linejoin="round" stroke-miterlimit="10" d="
		M21.3,24.3h-17c-1.7,0-3-1.3-3-3v-20h17v20C18.3,23,19.7,24.3,21.3,24.3c1.7,0,3-1.3,3-3v-17h-4"/>
</g>
</svg>
