<?xml version="1.0" encoding="UTF-8"?>
<!-- Generator: Adobe Illustrator 16.0.4, SVG Export Plug-In . SVG Version: 6.00 Build 0)  -->
<svg xmlns="http://www.w3.org/2000/svg" xmlns:xlink="http://www.w3.org/1999/xlink" id="Layer_1" x="0px" y="0px" width="300px" height="125px" viewBox="0 0 300 125" xml:space="preserve">
<g>
	<path d="M139.316,37.104c0.692-0.951,1.455-1.957,2.288-3.018c0.833-1.06,1.66-2.077,2.483-3.051   c0.822-0.974,1.595-1.854,2.32-2.645c0.725-0.79,1.325-1.39,1.801-1.802c0.194-0.194,0.519-0.324,0.974-0.389   c0.454-0.065,0.892-0.076,1.314-0.033c0.422,0.044,0.751,0.142,0.99,0.293s0.249,0.356,0.032,0.616   c-1.363,1.536-2.839,3.104-4.429,4.705c-1.59,1.602-3.105,3.268-4.543,4.998c-1.439,1.731-2.71,3.532-3.813,5.403   c-1.103,1.872-1.861,3.846-2.271,5.923c-0.022,0.13-0.173,0.271-0.454,0.422c-0.282,0.151-0.584,0.243-0.909,0.275   c-0.325,0.033-0.617-0.027-0.876-0.178c-0.26-0.152-0.389-0.455-0.389-0.909c0-0.778,0.151-1.628,0.454-2.547   c0.303-0.92,0.687-1.828,1.152-2.727c0.465-0.897,0.968-1.736,1.509-2.515c0.541-0.779,1.049-1.429,1.525-1.947   c-2.813,0.541-5.571,1.108-8.275,1.703c-2.705,0.596-5.441,1.196-8.211,1.802c-0.649,1.146-1.228,2.056-1.736,2.726   c-0.509,0.671-0.953,1.152-1.331,1.444c-0.379,0.292-0.687,0.405-0.925,0.341c-0.239-0.065-0.422-0.249-0.552-0.552   c-0.044-0.13,0.01-0.341,0.162-0.633c0.151-0.292,0.341-0.611,0.568-0.957s0.449-0.682,0.666-1.007   c0.216-0.324,0.378-0.584,0.487-0.778c-0.195,0.044-0.438,0.108-0.73,0.194c-0.292,0.087-0.584,0.179-0.876,0.276   c-0.292,0.097-0.579,0.2-0.86,0.308c-0.281,0.109-0.519,0.206-0.714,0.293c-0.151,0.064-0.211-0.033-0.178-0.293   c0.032-0.259,0.14-0.557,0.324-0.892c0.184-0.336,0.433-0.66,0.747-0.974c0.313-0.313,0.687-0.492,1.12-0.536l2.044-0.194   c0.541-0.844,1.087-1.73,1.639-2.661c0.552-0.93,1.125-1.854,1.72-2.774c0.595-0.92,1.222-1.817,1.882-2.694   c0.66-0.876,1.39-1.671,2.19-2.385c0.173-0.151,0.417-0.286,0.73-0.405s0.654-0.217,1.022-0.293   c0.368-0.075,0.719-0.124,1.055-0.146s0.611-0.005,0.828,0.049c0.216,0.054,0.335,0.146,0.357,0.275   c0.021,0.13-0.097,0.304-0.357,0.52c-0.519,0.411-1.136,0.984-1.85,1.72c-0.714,0.736-1.45,1.569-2.207,2.499   c-0.757,0.931-1.509,1.909-2.255,2.937c-0.747,1.028-1.401,2.028-1.963,3.002c2.921-0.476,5.695-0.93,8.324-1.362   C133.945,38.101,136.611,37.624,139.316,37.104z"></path>
	<path d="M152.979,38.273c0.303-0.281,0.546-0.352,0.73-0.211c0.184,0.141,0.124,0.395-0.179,0.763   c-0.174,0.194-0.411,0.481-0.714,0.859c-0.304,0.379-0.617,0.763-0.941,1.152s-0.648,0.736-0.974,1.039s-0.595,0.476-0.812,0.519   c-0.281,0.065-0.676,0.022-1.184-0.13c-0.509-0.15-0.947-0.378-1.314-0.682c-0.282,0.195-0.552,0.385-0.812,0.568   c-0.259,0.184-0.519,0.319-0.779,0.405c-0.238,0.044-0.53,0.033-0.876-0.032c-0.347-0.064-0.688-0.189-1.022-0.373   c-0.335-0.184-0.633-0.405-0.893-0.665c-0.259-0.26-0.433-0.562-0.519-0.909c-0.086-0.367,0.005-0.806,0.276-1.314   c0.271-0.508,0.6-0.989,0.99-1.443c0.39-0.455,0.795-0.85,1.217-1.185c0.422-0.336,0.751-0.514,0.99-0.536   c0.151-0.021,0.341-0.011,0.568,0.033c0.227,0.043,0.454,0.119,0.681,0.227c0.228,0.108,0.433,0.238,0.617,0.39   c0.184,0.151,0.308,0.324,0.373,0.52c0.303-0.26,0.562-0.379,0.779-0.357c0.173,0.044,0.357,0.098,0.551,0.162   c0.195,0.065,0.374,0.142,0.536,0.228c0.162,0.087,0.298,0.194,0.405,0.324c0.108,0.13,0.151,0.271,0.131,0.422   c0,0.174-0.088,0.406-0.26,0.698c-0.174,0.292-0.357,0.59-0.552,0.893s-0.357,0.573-0.487,0.811   c-0.13,0.238-0.151,0.39-0.065,0.455c0.065,0.043,0.211-0.006,0.438-0.146c0.228-0.141,0.503-0.335,0.828-0.584   c0.324-0.249,0.686-0.535,1.087-0.86C152.193,38.987,152.589,38.642,152.979,38.273z M144.833,41.389   c0.238,0.13,0.536,0.06,0.893-0.211s0.698-0.611,1.022-1.022c0.324-0.41,0.6-0.832,0.828-1.266c0.227-0.433,0.34-0.757,0.34-0.974   c-0.086-0.194-0.238-0.248-0.454-0.162c-0.216,0.087-0.455,0.249-0.714,0.487c-0.26,0.238-0.525,0.53-0.795,0.876   s-0.503,0.676-0.698,0.989c-0.194,0.314-0.34,0.596-0.438,0.844C144.719,41.199,144.724,41.346,144.833,41.389z"></path>
	<path d="M146.163,53.461c-0.108,0.173-0.297,0.287-0.568,0.341c-0.27,0.054-0.53,0.054-0.779,0c-0.249-0.054-0.449-0.173-0.6-0.356   c-0.151-0.185-0.151-0.438,0-0.763c0.108-0.238,0.346-0.688,0.714-1.347c0.368-0.661,0.817-1.444,1.347-2.354   c0.53-0.908,1.12-1.904,1.769-2.985c0.649-1.082,1.31-2.169,1.98-3.262c0.67-1.092,1.331-2.152,1.979-3.181   c0.649-1.027,1.238-1.946,1.77-2.758c0.529-0.812,0.984-1.472,1.363-1.979c0.377-0.509,0.621-0.784,0.729-0.828   c0.216-0.13,0.454-0.146,0.714-0.049c0.26,0.098,0.492,0.233,0.697,0.406c0.206,0.173,0.373,0.362,0.504,0.567   c0.129,0.206,0.162,0.373,0.098,0.503c-0.045,0.13-0.125,0.276-0.244,0.438s-0.287,0.396-0.503,0.698s-0.498,0.692-0.844,1.168   c-0.347,0.476-0.778,1.071-1.298,1.785c0.324-0.303,0.66-0.611,1.006-0.925s0.654-0.601,0.925-0.86s0.503-0.476,0.698-0.649   c0.194-0.173,0.312-0.271,0.356-0.292c0.087-0.043,0.254-0.049,0.503-0.016c0.248,0.032,0.508,0.097,0.779,0.194   c0.27,0.098,0.52,0.217,0.746,0.356c0.227,0.142,0.362,0.287,0.406,0.438c0.043,0.108,0,0.266-0.131,0.471   c-0.129,0.206-0.291,0.422-0.486,0.649c-0.195,0.227-0.411,0.47-0.648,0.729c-0.238,0.26-0.455,0.492-0.649,0.698   s-0.341,0.39-0.438,0.552s-0.113,0.265-0.049,0.308c0.108,0.065,0.416-0.037,0.926-0.308c0.508-0.271,1.07-0.595,1.688-0.974   c0.616-0.379,1.195-0.752,1.736-1.12c0.54-0.367,0.896-0.627,1.07-0.778c0.324-0.325,0.562-0.406,0.714-0.244   c0.151,0.163,0.13,0.396-0.065,0.698c-0.107,0.151-0.395,0.443-0.859,0.876c-0.465,0.434-0.979,0.893-1.541,1.38   c-0.563,0.486-1.115,0.93-1.656,1.33s-0.93,0.633-1.168,0.698c-0.324,0.064-0.67,0.064-1.038,0   c-0.368-0.065-0.714-0.174-1.038-0.325c-0.325-0.151-0.606-0.346-0.844-0.584c-0.238-0.237-0.369-0.497-0.391-0.779   c-0.021-0.129,0.021-0.303,0.131-0.519c0.107-0.216,0.227-0.433,0.356-0.649c0.151-0.237,0.325-0.497,0.52-0.778   c-0.433,0.346-0.854,0.703-1.266,1.07c-0.368,0.304-0.747,0.649-1.136,1.039c-0.39,0.389-0.736,0.768-1.039,1.136   c-0.887,1.319-1.947,2.953-3.18,4.9S147.439,51.254,146.163,53.461z"></path>
	<path d="M156.288,53.461c-0.108,0.173-0.298,0.287-0.568,0.341s-0.53,0.054-0.778,0c-0.249-0.054-0.449-0.173-0.601-0.356   c-0.151-0.185-0.151-0.438,0-0.763c0.108-0.238,0.347-0.688,0.714-1.347c0.368-0.661,0.816-1.444,1.347-2.354   c0.53-0.908,1.12-1.904,1.769-2.985c0.649-1.082,1.31-2.169,1.98-3.262c0.67-1.092,1.33-2.152,1.979-3.181   c0.649-1.027,1.238-1.946,1.77-2.758c0.529-0.812,0.984-1.472,1.363-1.979c0.377-0.509,0.621-0.784,0.729-0.828   c0.216-0.13,0.454-0.146,0.714-0.049c0.26,0.098,0.492,0.233,0.697,0.406c0.206,0.173,0.373,0.362,0.504,0.567   c0.129,0.206,0.162,0.373,0.098,0.503c-0.045,0.13-0.125,0.276-0.244,0.438s-0.287,0.396-0.503,0.698s-0.498,0.692-0.844,1.168   c-0.347,0.476-0.778,1.071-1.298,1.785c0.324-0.303,0.66-0.611,1.006-0.925s0.654-0.601,0.925-0.86s0.503-0.476,0.698-0.649   c0.194-0.173,0.312-0.271,0.356-0.292c0.087-0.043,0.254-0.049,0.503-0.016c0.248,0.032,0.508,0.097,0.779,0.194   c0.27,0.098,0.52,0.217,0.746,0.356c0.227,0.142,0.362,0.287,0.406,0.438c0.043,0.108,0,0.266-0.131,0.471   c-0.129,0.206-0.291,0.422-0.486,0.649c-0.195,0.227-0.411,0.47-0.648,0.729c-0.238,0.26-0.455,0.492-0.649,0.698   s-0.341,0.39-0.438,0.552s-0.113,0.265-0.049,0.308c0.108,0.065,0.416-0.037,0.926-0.308c0.508-0.271,1.07-0.595,1.688-0.974   c0.616-0.379,1.195-0.752,1.736-1.12c0.54-0.367,0.896-0.627,1.07-0.778c0.324-0.325,0.562-0.406,0.714-0.244   c0.151,0.163,0.13,0.396-0.065,0.698c-0.107,0.151-0.395,0.443-0.859,0.876c-0.465,0.434-0.979,0.893-1.541,1.38   c-0.563,0.486-1.115,0.93-1.656,1.33s-0.93,0.633-1.168,0.698c-0.324,0.064-0.67,0.064-1.038,0   c-0.368-0.065-0.714-0.174-1.038-0.325c-0.325-0.151-0.606-0.346-0.844-0.584c-0.238-0.237-0.369-0.497-0.391-0.779   c-0.021-0.129,0.021-0.303,0.131-0.519c0.107-0.216,0.227-0.433,0.356-0.649c0.151-0.237,0.325-0.497,0.52-0.778   c-0.433,0.346-0.854,0.703-1.266,1.07c-0.368,0.304-0.747,0.649-1.136,1.039c-0.39,0.389-0.736,0.768-1.039,1.136   c-0.887,1.319-1.947,2.953-3.18,4.9C158.819,49.178,157.564,51.254,156.288,53.461z"></path>
	<path d="M182.51,38.111c0.303-0.26,0.551-0.309,0.746-0.146s0.141,0.417-0.162,0.763c-0.087,0.108-0.324,0.33-0.715,0.665   c-0.389,0.336-0.881,0.779-1.477,1.331c-0.595,0.552-1.276,1.195-2.044,1.931c-0.769,0.735-1.563,1.536-2.386,2.401   c-0.973,1.039-1.773,2.061-2.4,3.067c-0.629,1.006-1.146,1.919-1.559,2.742c-0.41,0.821-0.74,1.509-0.99,2.061   c-0.248,0.552-0.47,0.87-0.664,0.957c-0.195,0.086-0.443,0.135-0.747,0.146c-0.303,0.011-0.584-0.022-0.844-0.098   c-0.259-0.076-0.442-0.194-0.552-0.357c-0.107-0.162-0.054-0.395,0.162-0.697c0.152-0.238,0.482-0.79,0.99-1.655   s1.109-1.882,1.801-3.051c0.693-1.168,1.444-2.417,2.256-3.748c0.811-1.33,1.596-2.58,2.353-3.748   c-0.433,0.411-0.854,0.778-1.266,1.104c-0.411,0.324-0.746,0.486-1.006,0.486c-0.13,0-0.304-0.037-0.52-0.113   c-0.216-0.075-0.433-0.173-0.649-0.292c-0.215-0.119-0.416-0.26-0.6-0.422s-0.297-0.341-0.341-0.535   c-0.021-0.174,0.06-0.471,0.243-0.893s0.422-0.877,0.714-1.363c0.292-0.487,0.605-0.963,0.941-1.428   c0.335-0.465,0.644-0.816,0.925-1.055c0.13-0.108,0.309-0.141,0.535-0.098c0.228,0.044,0.455,0.136,0.682,0.276   c0.228,0.141,0.433,0.308,0.617,0.503c0.184,0.194,0.286,0.368,0.309,0.519c0.064,0.152-0.045,0.422-0.325,0.812   c-0.281,0.39-0.579,0.773-0.893,1.152s-0.567,0.703-0.763,0.974c-0.194,0.271-0.174,0.362,0.064,0.275   c0.174-0.064,0.395-0.205,0.666-0.422c0.27-0.216,0.562-0.471,0.876-0.763s0.633-0.6,0.958-0.925   c0.324-0.324,0.627-0.616,0.908-0.876c0.173-0.151,0.309-0.286,0.406-0.405c0.097-0.119,0.178-0.189,0.242-0.211   c0.152-0.021,0.325,0,0.52,0.064c0.195,0.064,0.379,0.151,0.552,0.26s0.313,0.243,0.423,0.405c0.107,0.162,0.162,0.319,0.162,0.471   c0,0.174-0.131,0.422-0.391,0.746c-0.259,0.325-0.589,0.73-0.989,1.218c-0.4,0.486-0.866,1.06-1.396,1.72   c-0.53,0.66-1.066,1.411-1.606,2.255c0.065-0.064,0.309-0.324,0.73-0.778s0.94-0.99,1.558-1.606s1.276-1.249,1.979-1.898   S181.903,38.609,182.51,38.111z"></path>
</g>
<g>
	<g>
		<defs>
			<rect id="SVGID_1_" y="0.872" width="300" height="123.256"></rect>
		</defs>
		<clipPath id="SVGID_2_">
			<use xlink:href="#SVGID_1_" overflow="visible"></use>
		</clipPath>
		<g clip-path="url(#SVGID_2_)">
			<g>
				<path d="M95.485,117.516c0,0.405-0.109,0.788-0.328,1.147c-0.219,0.358-0.554,0.673-1.007,0.942      c-0.453,0.269-1.019,0.479-1.698,0.632c-0.679,0.152-1.483,0.229-2.411,0.229c-0.477,0-0.964-0.039-1.463-0.117      c-0.43-0.062-0.901-0.16-1.417-0.293s-1.015-0.323-1.499-0.573l0.714-1.64c0.429,0.219,0.861,0.389,1.294,0.51      s0.825,0.209,1.176,0.264c0.414,0.062,0.812,0.098,1.194,0.105c1.17,0,2.042-0.105,2.616-0.316s0.86-0.487,0.86-0.831      c0-0.219-0.09-0.379-0.269-0.48c-0.18-0.102-0.457-0.159-0.831-0.176c-0.086-0.007-0.248-0.018-0.486-0.029      c-0.238-0.012-0.529-0.024-0.873-0.04c-0.343-0.016-0.726-0.031-1.147-0.047s-0.859-0.035-1.311-0.059      c-0.453-0.023-0.869-0.086-1.247-0.188s-0.706-0.248-0.983-0.439c-0.277-0.19-0.494-0.425-0.649-0.702      c-0.156-0.277-0.234-0.603-0.234-0.978s0.123-0.728,0.369-1.06c0.246-0.331,0.597-0.62,1.054-0.866s1.011-0.438,1.663-0.579      c0.651-0.141,1.379-0.211,2.183-0.211c0.476,0,0.96,0.035,1.452,0.105c0.421,0.062,0.892,0.152,1.411,0.27      c0.519,0.116,1.024,0.288,1.516,0.515l-0.621,1.615c-0.242-0.101-0.515-0.198-0.819-0.292c-0.305-0.094-0.623-0.176-0.954-0.246      c-0.332-0.07-0.667-0.125-1.007-0.164s-0.666-0.059-0.978-0.059c-0.468,0-0.903,0.021-1.305,0.064      c-0.402,0.043-0.751,0.107-1.048,0.193c-0.297,0.086-0.529,0.191-0.696,0.316c-0.168,0.124-0.252,0.265-0.252,0.421      c0,0.203,0.086,0.355,0.258,0.457c0.171,0.102,0.425,0.159,0.761,0.175c0.375,0.016,0.901,0.039,1.581,0.07      c0.679,0.031,1.482,0.066,2.411,0.105c0.468,0.023,0.888,0.086,1.259,0.188c0.371,0.102,0.687,0.246,0.948,0.434      c0.261,0.187,0.462,0.417,0.603,0.69C95.415,116.853,95.485,117.164,95.485,117.516z"></path>
				<path d="M99.582,120.161v-8.194h2.061v8.194H99.582z"></path>
				<path d="M114.192,120.161l-5.923-5.725v5.725h-2.061v-8.194h2.061l5.923,5.725v-5.725h2.061v8.194H114.192z"></path>
				<path d="M131.201,118.007c-0.203,0.352-0.464,0.674-0.784,0.966c-0.32,0.293-0.695,0.549-1.124,0.767      c-0.429,0.219-0.909,0.389-1.44,0.51s-1.112,0.182-1.744,0.182c-0.897,0-1.699-0.117-2.406-0.352s-1.303-0.55-1.791-0.948      c-0.488-0.397-0.86-0.86-1.118-1.387c-0.257-0.527-0.386-1.087-0.386-1.681c0-0.593,0.129-1.152,0.386-1.68      c0.258-0.526,0.63-0.989,1.118-1.387c0.488-0.398,1.084-0.715,1.791-0.948c0.707-0.234,1.508-0.352,2.406-0.352      c0.609,0,1.172,0.057,1.691,0.17s0.989,0.273,1.411,0.479c0.422,0.207,0.792,0.449,1.112,0.727      c0.32,0.276,0.585,0.579,0.796,0.907l-1.85,0.937c-0.117-0.195-0.275-0.379-0.474-0.551c-0.199-0.172-0.437-0.319-0.714-0.444      c-0.277-0.125-0.589-0.225-0.937-0.299c-0.348-0.074-0.72-0.111-1.118-0.111c-0.578,0-1.083,0.068-1.516,0.205      s-0.792,0.322-1.077,0.556c-0.285,0.234-0.5,0.506-0.644,0.813c-0.145,0.309-0.216,0.635-0.216,0.978      c0,0.336,0.072,0.658,0.216,0.966c0.145,0.309,0.359,0.58,0.644,0.813c0.285,0.234,0.644,0.422,1.077,0.562      s0.938,0.211,1.516,0.211c0.421,0,0.812-0.041,1.171-0.123c0.359-0.082,0.679-0.193,0.96-0.334      c0.281-0.141,0.522-0.305,0.726-0.491c0.203-0.188,0.355-0.387,0.457-0.598L131.201,118.007z"></path>
				<path d="M135.298,120.161v-8.194h9.869v1.768h-7.808v1.475h6.872v1.593h-6.872v1.592h8.113v1.768H135.298z"></path>
				<path d="M167.994,114.437c0,0.383-0.076,0.7-0.228,0.954c-0.152,0.254-0.357,0.463-0.614,0.626      c-0.258,0.164-0.553,0.293-0.885,0.387s-0.677,0.176-1.035,0.246c-0.289,0.047-0.623,0.107-1.002,0.182      c-0.378,0.074-0.748,0.146-1.111,0.216s-0.695,0.137-0.995,0.199c-0.301,0.062-0.517,0.105-0.649,0.129      c-0.227,0.047-0.424,0.154-0.592,0.322s-0.252,0.399-0.252,0.696h6.954v1.768h-9.062v-1.592c0-0.438,0.074-0.815,0.223-1.136      s0.355-0.593,0.621-0.819s0.583-0.414,0.953-0.562c0.371-0.147,0.779-0.265,1.225-0.351c0.304-0.062,0.627-0.123,0.971-0.182      s0.676-0.115,0.996-0.17c0.319-0.055,0.611-0.105,0.877-0.152s0.473-0.082,0.621-0.105c0.391-0.077,0.657-0.171,0.802-0.28      c0.144-0.109,0.216-0.262,0.216-0.457c0-0.133-0.055-0.258-0.163-0.374c-0.109-0.117-0.283-0.219-0.521-0.305      c-0.238-0.086-0.545-0.156-0.92-0.211c-0.374-0.055-0.823-0.082-1.346-0.082c-0.406,0-0.783,0.039-1.13,0.117      s-0.655,0.176-0.925,0.293s-0.494,0.25-0.674,0.397c-0.179,0.148-0.308,0.293-0.386,0.434l-1.85-0.937      c0.141-0.219,0.356-0.449,0.649-0.69c0.293-0.242,0.65-0.463,1.071-0.662c0.422-0.198,0.905-0.364,1.452-0.497      c0.546-0.133,1.143-0.199,1.791-0.199c0.866,0,1.609,0.076,2.23,0.229c0.62,0.152,1.129,0.355,1.527,0.608      c0.398,0.254,0.69,0.551,0.878,0.89C167.9,113.705,167.994,114.062,167.994,114.437z"></path>
			</g>
			<g>
				<path d="M185.004,116.063c0,0.594-0.119,1.153-0.357,1.681c-0.238,0.526-0.587,0.989-1.047,1.387      c-0.461,0.398-1.027,0.714-1.697,0.948c-0.672,0.234-1.44,0.352-2.307,0.352c-0.859,0-1.623-0.117-2.295-0.352      c-0.671-0.234-1.236-0.55-1.697-0.948c-0.461-0.397-0.81-0.86-1.048-1.387c-0.237-0.527-0.356-1.087-0.356-1.681      c0-0.593,0.119-1.152,0.356-1.68c0.238-0.526,0.587-0.989,1.048-1.387c0.461-0.398,1.026-0.715,1.697-0.948      c0.672-0.234,1.436-0.352,2.295-0.352c0.866,0,1.635,0.117,2.307,0.352c0.67,0.233,1.236,0.55,1.697,0.948      c0.46,0.397,0.809,0.86,1.047,1.387C184.885,114.911,185.004,115.471,185.004,116.063z M182.838,116.063      c0-0.351-0.064-0.685-0.193-1.001c-0.129-0.315-0.325-0.595-0.591-0.837c-0.265-0.241-0.601-0.433-1.007-0.573      s-0.89-0.211-1.451-0.211c-0.555,0-1.034,0.07-1.439,0.211c-0.406,0.141-0.742,0.332-1.008,0.573      c-0.266,0.242-0.462,0.521-0.591,0.837c-0.129,0.316-0.192,0.65-0.192,1.001c0,0.352,0.063,0.686,0.192,1.001      c0.129,0.316,0.325,0.596,0.591,0.837c0.266,0.242,0.602,0.434,1.008,0.574c0.405,0.141,0.885,0.211,1.439,0.211      c0.562,0,1.045-0.07,1.451-0.211s0.742-0.332,1.007-0.574c0.266-0.241,0.462-0.521,0.591-0.837      C182.773,116.749,182.838,116.415,182.838,116.063z"></path>
			</g>
			<g>
				<path d="M199.895,116.063c0,0.594-0.119,1.153-0.356,1.681c-0.238,0.526-0.587,0.989-1.048,1.387      c-0.461,0.398-1.026,0.714-1.697,0.948c-0.672,0.234-1.439,0.352-2.307,0.352c-0.858,0-1.623-0.117-2.294-0.352      s-1.237-0.55-1.698-0.948c-0.46-0.397-0.809-0.86-1.047-1.387c-0.238-0.527-0.357-1.087-0.357-1.681      c0-0.593,0.119-1.152,0.357-1.68c0.238-0.526,0.587-0.989,1.047-1.387c0.461-0.398,1.027-0.715,1.698-0.948      c0.671-0.234,1.436-0.352,2.294-0.352c0.867,0,1.635,0.117,2.307,0.352c0.671,0.233,1.236,0.55,1.697,0.948      c0.461,0.397,0.81,0.86,1.048,1.387C199.775,114.911,199.895,115.471,199.895,116.063z M197.729,116.063      c0-0.351-0.064-0.685-0.193-1.001c-0.129-0.315-0.325-0.595-0.591-0.837c-0.266-0.241-0.602-0.433-1.007-0.573      c-0.406-0.141-0.89-0.211-1.452-0.211c-0.554,0-1.033,0.07-1.439,0.211s-0.742,0.332-1.007,0.573      c-0.266,0.242-0.462,0.521-0.591,0.837c-0.129,0.316-0.193,0.65-0.193,1.001c0,0.352,0.064,0.686,0.193,1.001      c0.129,0.316,0.325,0.596,0.591,0.837c0.265,0.242,0.601,0.434,1.007,0.574s0.886,0.211,1.439,0.211      c0.562,0,1.046-0.07,1.452-0.211c0.405-0.141,0.741-0.332,1.007-0.574c0.266-0.241,0.462-0.521,0.591-0.837      C197.665,116.749,197.729,116.415,197.729,116.063z"></path>
			</g>
			<g>
				<path d="M213.568,114.46c-0.266-0.18-0.578-0.34-0.938-0.479c-0.305-0.117-0.677-0.225-1.117-0.322      c-0.441-0.098-0.947-0.146-1.517-0.146c-0.546,0-1.06,0.066-1.539,0.199s-0.901,0.311-1.265,0.532      c-0.363,0.223-0.654,0.482-0.872,0.778c-0.218,0.297-0.339,0.609-0.362,0.937c0.585-0.351,1.248-0.616,1.99-0.796      c0.74-0.179,1.479-0.269,2.212-0.269c0.554,0,1.085,0.051,1.593,0.151c0.506,0.102,0.953,0.258,1.34,0.469      s0.694,0.474,0.925,0.79c0.229,0.316,0.345,0.688,0.345,1.118c0,0.336-0.102,0.683-0.304,1.042      c-0.203,0.358-0.511,0.683-0.925,0.972s-0.938,0.526-1.574,0.714c-0.637,0.188-1.388,0.281-2.254,0.281      s-1.631-0.119-2.295-0.357c-0.663-0.238-1.219-0.552-1.668-0.942c-0.449-0.39-0.786-0.837-1.013-1.34      c-0.226-0.504-0.339-1.021-0.339-1.552c0-0.593,0.129-1.163,0.386-1.709c0.258-0.546,0.636-1.03,1.136-1.451      c0.5-0.422,1.109-0.758,1.832-1.007c0.722-0.25,1.547-0.375,2.477-0.375c0.529,0.016,1.068,0.074,1.615,0.176      c0.234,0.047,0.478,0.104,0.731,0.17c0.253,0.066,0.511,0.146,0.772,0.239s0.52,0.207,0.772,0.34      c0.254,0.133,0.497,0.285,0.731,0.457L213.568,114.46z M212.396,117.34c0-0.172-0.055-0.32-0.163-0.445      c-0.109-0.124-0.262-0.228-0.456-0.31c-0.195-0.082-0.428-0.145-0.697-0.188s-0.561-0.064-0.872-0.064      c-0.608,0-1.263,0.078-1.961,0.234s-1.353,0.386-1.961,0.69c0.241,0.398,0.62,0.724,1.136,0.978s1.178,0.381,1.99,0.381      c0.53,0,0.984-0.037,1.363-0.111s0.689-0.17,0.932-0.287c0.241-0.117,0.417-0.252,0.526-0.404      C212.342,117.662,212.396,117.504,212.396,117.34z"></path>
			</g>
		</g>
	</g>
</g>
<g>
	<path d="M55.014,85.5c0-0.296,0.104-0.549,0.311-0.757c0.207-0.207,0.459-0.311,0.756-0.311h2.847c0.296,0,0.548,0.104,0.756,0.311   c0.207,0.208,0.311,0.461,0.311,0.757v6.272c0,0.297-0.104,0.549-0.311,0.756c-0.208,0.208-0.46,0.312-0.756,0.312H20.982   c-0.297,0-0.549-0.104-0.756-0.312c-0.208-0.207-0.311-0.459-0.311-0.756V88.97c0-0.296,0.104-0.549,0.311-0.756   c0.208-0.208,0.459-0.312,0.756-0.312h4.226c0.296,0,0.548-0.104,0.756-0.312c0.207-0.207,0.312-0.46,0.312-0.757V70.598   c0-0.326-0.104-0.586-0.312-0.778c-0.208-0.193-0.46-0.29-0.756-0.29h-4.226c-0.297,0-0.549-0.104-0.756-0.311   c-0.208-0.208-0.311-0.46-0.311-0.757v-2.847c0-0.296,0.104-0.541,0.311-0.734c0.208-0.192,0.459-0.289,0.756-0.289h16.371   c0.296,0,0.548,0.097,0.756,0.289c0.207,0.193,0.311,0.438,0.311,0.734v2.847c0,0.297-0.104,0.549-0.311,0.757   c-0.208,0.207-0.46,0.311-0.756,0.311h-5.071c-0.297,0-0.549,0.097-0.756,0.29c-0.208,0.192-0.312,0.452-0.312,0.778v16.236   c0,0.297,0.104,0.55,0.312,0.757c0.207,0.208,0.459,0.312,0.756,0.312H53.99c0.296,0,0.541-0.104,0.734-0.312   c0.193-0.207,0.29-0.46,0.29-0.757V85.5z"></path>
	<path d="M108.484,86.968c0.148,0.267,0.378,0.489,0.689,0.667c0.312,0.179,0.615,0.268,0.912,0.268h5.338   c0.296,0,0.541,0.104,0.734,0.312c0.192,0.207,0.289,0.46,0.289,0.756v2.803c0,0.297-0.097,0.549-0.289,0.756   c-0.193,0.208-0.438,0.312-0.734,0.312h-15.57c-0.297,0-0.549-0.104-0.756-0.312c-0.208-0.207-0.312-0.459-0.312-0.756V88.97   c0-0.296,0.104-0.549,0.312-0.756c0.207-0.208,0.459-0.312,0.756-0.312h2.358c0.326,0,0.534-0.089,0.623-0.268   c0.089-0.178,0.059-0.4-0.089-0.667L101.1,84.21c-0.149-0.237-0.371-0.445-0.667-0.623c-0.297-0.178-0.608-0.267-0.934-0.267   H85.352c-0.297,0-0.601,0.089-0.912,0.267s-0.542,0.386-0.689,0.623l-1.646,2.758c-0.149,0.267-0.171,0.489-0.067,0.667   c0.104,0.179,0.304,0.268,0.601,0.268h2.358c0.296,0,0.548,0.104,0.756,0.312c0.207,0.207,0.311,0.46,0.311,0.756v2.803   c0,0.297-0.104,0.549-0.311,0.756c-0.208,0.208-0.46,0.312-0.756,0.312H69.471c-0.297,0-0.549-0.104-0.756-0.312   c-0.208-0.207-0.311-0.459-0.311-0.756V88.97c0-0.296,0.104-0.549,0.311-0.756c0.208-0.208,0.459-0.312,0.756-0.312h5.294   c0.296,0,0.601-0.089,0.912-0.268c0.312-0.178,0.541-0.4,0.689-0.667l9.787-16.548c0.148-0.237,0.17-0.445,0.066-0.623   c-0.104-0.178-0.304-0.268-0.601-0.268h-2.001c-0.327,0-0.586-0.104-0.779-0.311c-0.193-0.208-0.289-0.46-0.289-0.757v-2.847   c0-0.296,0.096-0.541,0.289-0.734c0.193-0.192,0.452-0.289,0.779-0.289h17.66c0.296,0,0.548,0.097,0.756,0.289   c0.207,0.193,0.312,0.438,0.312,0.734v2.847c0,0.297-0.104,0.549-0.312,0.757c-0.208,0.207-0.46,0.311-0.756,0.311h-2.046   c-0.296,0-0.489,0.09-0.578,0.268s-0.06,0.386,0.089,0.623L108.484,86.968z M97.007,79.05c0.296,0,0.497-0.089,0.601-0.268   c0.104-0.178,0.082-0.385-0.066-0.622l-4.582-7.74c-0.06-0.118-0.119-0.229-0.178-0.334c-0.06-0.104-0.119-0.2-0.178-0.289   c-0.06-0.118-0.119-0.207-0.178-0.268l-0.133,0.268c-0.06,0.089-0.126,0.186-0.2,0.289c-0.074,0.104-0.141,0.216-0.2,0.334   l-4.538,7.74c-0.148,0.237-0.178,0.444-0.089,0.622c0.089,0.179,0.282,0.268,0.579,0.268H97.007z"></path>
</g>
<g>
	<path d="M171.607,78.271c0.207,0.192,0.312,0.452,0.312,0.778v2.091c0,0.297-0.105,0.549-0.312,0.756   c-0.207,0.208-0.459,0.312-0.756,0.312h-3.203c-0.297,0-0.549,0.104-0.756,0.312c-0.208,0.208-0.312,0.46-0.312,0.756v8.274   c0,0.297-0.104,0.549-0.312,0.756c-0.207,0.208-0.46,0.312-0.756,0.312h-2.848c-0.297,0-0.541-0.059-0.733-0.178   c-0.193-0.118-0.289-0.252-0.289-0.4s-0.097-0.223-0.29-0.223c-0.192,0-0.407,0.074-0.645,0.223l-0.311,0.223   c-0.238,0.148-0.55,0.282-0.936,0.4c-0.385,0.119-0.727,0.178-1.022,0.178h-24.289c-0.297,0-0.616-0.066-0.957-0.2   c-0.341-0.134-0.63-0.304-0.868-0.512l-3.47-3.114c-0.238-0.207-0.43-0.481-0.578-0.822c-0.149-0.341-0.223-0.66-0.223-0.957V87.19   V70.197v-0.045c0-0.296,0.074-0.615,0.223-0.956c0.148-0.341,0.34-0.615,0.578-0.823l3.47-3.158   c0.237-0.178,0.526-0.326,0.868-0.445c0.34-0.118,0.66-0.178,0.957-0.178h25.089c0.296,0,0.578,0.097,0.845,0.289   c0.268,0.193,0.445,0.423,0.534,0.689c0.089,0.268,0.192,0.4,0.312,0.4c0.118,0,0.223-0.133,0.312-0.4l0.044-0.089   c0.09-0.267,0.268-0.504,0.534-0.712c0.267-0.207,0.548-0.312,0.845-0.312h2.848c0.296,0,0.549,0.104,0.756,0.312   c0.207,0.208,0.312,0.461,0.312,0.757v6.272c0,0.297-0.104,0.541-0.312,0.733c-0.207,0.193-0.46,0.305-0.756,0.334h-2.848   c-0.297,0-0.541-0.066-0.733-0.2c-0.193-0.134-0.289-0.289-0.289-0.467v-1.69c0-0.268-0.097-0.497-0.29-0.689   c-0.192-0.193-0.438-0.29-0.733-0.29h-24.556c-0.297,0-0.623,0.067-0.979,0.2c-0.356,0.134-0.638,0.305-0.845,0.512l-0.445,0.356   c-0.238,0.208-0.43,0.482-0.579,0.822c-0.148,0.342-0.222,0.661-0.222,0.957v12.589c0,0.297,0.074,0.616,0.222,0.957   s0.341,0.615,0.579,0.822l0.445,0.4c0.207,0.208,0.489,0.378,0.845,0.512s0.682,0.2,0.979,0.2h20.997   c0.296,0,0.638-0.052,1.022-0.155c0.386-0.104,0.697-0.229,0.935-0.379l1.69-1.022c0.237-0.148,0.452-0.378,0.645-0.689   c0.193-0.312,0.29-0.615,0.29-0.912v-1.424c0-0.296-0.104-0.548-0.312-0.756c-0.208-0.207-0.46-0.312-0.756-0.312h-5.738   c-0.297,0-0.55-0.104-0.757-0.312c-0.208-0.207-0.312-0.459-0.312-0.756V79.05c0-0.326,0.104-0.586,0.312-0.778   c0.207-0.193,0.46-0.29,0.757-0.29h16.014C171.148,77.981,171.4,78.078,171.607,78.271z"></path>
</g>
<g>
	<path d="M218.939,64.592c0.296,0,0.549,0.111,0.756,0.334s0.312,0.482,0.312,0.778v5.961c0,0.327-0.104,0.586-0.312,0.778   c-0.207,0.193-0.46,0.289-0.756,0.289h-2.848c-0.297,0-0.549-0.096-0.756-0.289c-0.207-0.192-0.311-0.451-0.311-0.778v-1.067   c0-0.326-0.098-0.586-0.289-0.778c-0.193-0.193-0.438-0.29-0.734-0.29h-21.354c-0.297,0-0.549,0.097-0.756,0.29   c-0.208,0.192-0.312,0.452-0.312,0.778v4.849c0,0.297,0.104,0.541,0.312,0.734c0.207,0.192,0.459,0.289,0.756,0.289h11.389   c0.296,0,0.549,0.104,0.756,0.312c0.207,0.207,0.312,0.46,0.312,0.756v2.135c0,0.297-0.104,0.55-0.312,0.757   c-0.207,0.208-0.46,0.312-0.756,0.312h-11.389c-0.297,0-0.549,0.097-0.756,0.289c-0.208,0.193-0.312,0.452-0.312,0.778v5.026   c0,0.297,0.104,0.55,0.312,0.757c0.207,0.208,0.459,0.312,0.756,0.312h21.354c0.296,0,0.541-0.104,0.734-0.312   c0.191-0.207,0.289-0.46,0.289-0.757V85.1c0-0.296,0.104-0.549,0.311-0.757c0.207-0.207,0.459-0.311,0.756-0.311h2.848   c0.296,0,0.549,0.104,0.756,0.311c0.207,0.208,0.312,0.461,0.312,0.757v6.673c0,0.297-0.104,0.549-0.312,0.756   c-0.207,0.208-0.46,0.312-0.756,0.312h-37.59c-0.297,0-0.549-0.104-0.756-0.312c-0.208-0.207-0.312-0.459-0.312-0.756V88.97   c0-0.296,0.104-0.549,0.312-0.756c0.207-0.208,0.459-0.312,0.756-0.312h4.227c0.296,0,0.548-0.104,0.756-0.312   c0.207-0.207,0.312-0.46,0.312-0.757V70.598c0-0.326-0.104-0.586-0.312-0.778c-0.208-0.193-0.46-0.29-0.756-0.29h-4.227   c-0.297,0-0.549-0.104-0.756-0.311c-0.208-0.208-0.312-0.46-0.312-0.757v-2.847c0-0.296,0.104-0.541,0.312-0.734   c0.207-0.192,0.459-0.289,0.756-0.289H218.939z"></path>
</g>
<g>
	<path d="M274.412,87.368c0.267,0.148,0.592,0.274,0.979,0.378c0.385,0.104,0.727,0.156,1.023,0.156h2.535   c0.296,0,0.549,0.104,0.756,0.312c0.207,0.207,0.312,0.46,0.312,0.756v2.803c0,0.297-0.104,0.549-0.312,0.756   c-0.207,0.208-0.46,0.312-0.756,0.312h-15.57c-0.297,0-0.541-0.104-0.733-0.312c-0.193-0.207-0.289-0.459-0.289-0.756V88.97   c0-0.296,0.096-0.549,0.289-0.756c0.192-0.208,0.437-0.312,0.733-0.312h2.092c0.296,0,0.451-0.052,0.467-0.156   c0.015-0.104-0.097-0.229-0.334-0.378l-10.409-5.694c-0.237-0.147-0.556-0.267-0.956-0.355s-0.75-0.134-1.046-0.134h-8.585   c-0.297,0-0.55,0.104-0.757,0.312c-0.208,0.208-0.312,0.46-0.312,0.756v4.582c0,0.297,0.104,0.55,0.312,0.757   c0.207,0.208,0.46,0.312,0.757,0.312h4.226c0.296,0,0.548,0.104,0.757,0.312c0.207,0.207,0.311,0.46,0.311,0.756v2.803   c0,0.297-0.104,0.549-0.311,0.756c-0.209,0.208-0.461,0.312-0.757,0.312h-15.525c-0.297,0-0.549-0.104-0.757-0.312   c-0.207-0.207-0.311-0.459-0.311-0.756V88.97c0-0.296,0.104-0.549,0.311-0.756c0.208-0.208,0.46-0.312,0.757-0.312h4.226   c0.297,0,0.549-0.104,0.757-0.312c0.207-0.207,0.312-0.46,0.312-0.757V70.598c0-0.326-0.104-0.586-0.312-0.778   c-0.208-0.193-0.46-0.29-0.757-0.29h-4.226c-0.297,0-0.549-0.104-0.757-0.311c-0.207-0.208-0.311-0.46-0.311-0.757v-2.847   c0-0.296,0.104-0.541,0.311-0.734c0.208-0.192,0.46-0.289,0.757-0.289h36.878c0.297,0,0.63,0.06,1.001,0.178   c0.37,0.119,0.675,0.268,0.912,0.445l4.182,3.158c0.237,0.148,0.437,0.394,0.601,0.734c0.162,0.341,0.244,0.66,0.244,0.956v5.649   c0,0.297-0.082,0.608-0.244,0.935c-0.164,0.326-0.363,0.578-0.601,0.756l-4.182,3.158c-0.237,0.149-0.542,0.29-0.912,0.423   c-0.371,0.134-0.704,0.2-1.001,0.2h-6.05c-0.297,0-0.452,0.045-0.468,0.134c-0.015,0.089,0.097,0.208,0.334,0.355L274.412,87.368z    M243.539,75.18c0,0.297,0.104,0.549,0.312,0.756c0.207,0.208,0.46,0.312,0.757,0.312h23.932c0.297,0,0.623-0.066,0.979-0.2   s0.651-0.289,0.89-0.467l0.934-0.668c0.237-0.178,0.438-0.43,0.602-0.756c0.162-0.326,0.244-0.638,0.244-0.935V72.51   c0-0.296-0.082-0.607-0.244-0.934c-0.164-0.326-0.364-0.578-0.602-0.757l-0.934-0.667c-0.238-0.178-0.533-0.326-0.89-0.444   s-0.683-0.179-0.979-0.179h-23.932c-0.297,0-0.55,0.097-0.757,0.29c-0.208,0.192-0.312,0.452-0.312,0.778V75.18z"></path>
</g>
<g>
	<g>
		<defs>
			<rect id="SVGID_3_" width="300" height="125"></rect>
		</defs>
		<clipPath id="SVGID_4_">
			<use xlink:href="#SVGID_3_" overflow="visible"></use>
		</clipPath>
		
			<line clip-path="url(#SVGID_4_)" fill="none" stroke="#FBD335" stroke-miterlimit="10" x1="71.672" y1="39.758" x2="0" y2="39.758"></line>
	</g>
	<g>
		<defs>
			<rect id="SVGID_5_" width="300" height="125"></rect>
		</defs>
		<clipPath id="SVGID_6_">
			<use xlink:href="#SVGID_5_" overflow="visible"></use>
		</clipPath>
		
			<line clip-path="url(#SVGID_6_)" fill="none" stroke="#FBD335" stroke-miterlimit="10" x1="300" y1="39.758" x2="228.328" y2="39.758"></line>
	</g>
	<g>
		<defs>
			<rect id="SVGID_7_" width="300" height="125"></rect>
		</defs>
		<clipPath id="SVGID_8_">
			<use xlink:href="#SVGID_7_" overflow="visible"></use>
		</clipPath>
		
			<line clip-path="url(#SVGID_8_)" fill="none" stroke="#FBD335" stroke-miterlimit="10" x1="71.672" y1="118.115" x2="0" y2="118.115"></line>
	</g>
	<g>
		<defs>
			<rect id="SVGID_9_" width="300" height="125"></rect>
		</defs>
		<clipPath id="SVGID_10_">
			<use xlink:href="#SVGID_9_" overflow="visible"></use>
		</clipPath>
		
			<line clip-path="url(#SVGID_10_)" fill="none" stroke="#FBD335" stroke-miterlimit="10" x1="300" y1="118.115" x2="228.328" y2="118.115"></line>
	</g>
</g>
<g>
	<path d="M88.518,9.887l-3.992,0.812l0.335,1.652l3.59-0.73l0.31,1.524l-3.59,0.73l0.338,1.663l4.118-0.837l0.322,1.583l-5.907,1.2   l-1.629-8.017l5.781-1.175L88.518,9.887z"></path>
</g>
<g>
	<path d="M98.142,6.553l1.37,8.065l-1.8,0.306l-4.7-4.401l0.858,5.054l-1.801,0.306l-1.37-8.065l1.686-0.286l4.839,4.52   l-0.882-5.192L98.142,6.553z"></path>
</g>
<g>
	<path d="M101.203,6.104l4.219-0.593l0.742,5.285c0.136,0.966-0.012,1.724-0.443,2.273c-0.431,0.548-1.036,0.877-1.817,0.987   c-0.973,0.137-1.876-0.119-2.707-0.766l0.756-1.43c0.561,0.456,1.107,0.648,1.641,0.573c0.255-0.036,0.46-0.166,0.613-0.388   c0.154-0.222,0.203-0.53,0.148-0.924L103.82,7.32l-2.399,0.337L101.203,6.104z"></path>
</g>
<g>
	<path d="M109.645,12.075c-0.912-0.709-1.435-1.663-1.568-2.856c-0.134-1.194,0.165-2.239,0.896-3.133   c0.732-0.895,1.699-1.41,2.901-1.544c1.202-0.135,2.258,0.153,3.17,0.863c0.912,0.709,1.435,1.663,1.569,2.857   c0.134,1.193-0.166,2.238-0.897,3.132c-0.732,0.895-1.699,1.41-2.9,1.545C111.613,13.074,110.557,12.786,109.645,12.075z    M112.057,6.123c-0.679,0.076-1.222,0.396-1.629,0.96c-0.408,0.563-0.571,1.209-0.49,1.934s0.383,1.314,0.905,1.771   c0.521,0.456,1.122,0.645,1.801,0.569c0.678-0.076,1.221-0.394,1.629-0.954c0.409-0.56,0.572-1.202,0.491-1.927   c-0.082-0.725-0.384-1.318-0.907-1.777C113.335,6.238,112.735,6.047,112.057,6.123z"></path>
</g>
<g>
	<g>
		<defs>
			<rect id="SVGID_11_" width="300" height="125"></rect>
		</defs>
		<clipPath id="SVGID_12_">
			<use xlink:href="#SVGID_11_" overflow="visible"></use>
		</clipPath>
		<g clip-path="url(#SVGID_12_)">
			<g>
				<path d="M120.551,11.37l-0.273-3.266l-3.241-4.761l1.971-0.169l2.019,2.923l1.503-3.227l1.971-0.17l-2.403,5.247l0.273,3.266      L120.551,11.37z"></path>
			</g>
		</g>
	</g>
	<g>
		<defs>
			<rect id="SVGID_13_" width="300" height="125"></rect>
		</defs>
		<clipPath id="SVGID_14_">
			<use xlink:href="#SVGID_13_" overflow="visible"></use>
		</clipPath>
		<g clip-path="url(#SVGID_14_)">
			<g>
				<path d="M127.908,2.485l0.541,8.281l-1.821,0.122l-0.541-8.281L127.908,2.485z"></path>
			</g>
		</g>
	</g>
	<g>
		<defs>
			<rect id="SVGID_15_" width="300" height="125"></rect>
		</defs>
		<clipPath id="SVGID_16_">
			<use xlink:href="#SVGID_15_" overflow="visible"></use>
		</clipPath>
		<g clip-path="url(#SVGID_16_)">
			<g>
				<path d="M138.179,1.961l0.364,8.29l-1.824,0.082l-4.122-5.019l0.228,5.195l-1.824,0.082l-0.364-8.29l1.707-0.077l4.245,5.155      l-0.234-5.336L138.179,1.961z"></path>
			</g>
		</g>
	</g>
	<g>
		<defs>
			<rect id="SVGID_17_" width="300" height="125"></rect>
		</defs>
		<clipPath id="SVGID_18_">
			<use xlink:href="#SVGID_17_" overflow="visible"></use>
		</clipPath>
		<g clip-path="url(#SVGID_18_)">
			<g>
				<path d="M148.18,5.833l0.046,2.944c-0.797,0.931-1.914,1.409-3.349,1.432c-1.202,0.02-2.216-0.368-3.044-1.162      c-0.828-0.794-1.251-1.806-1.271-3.037c-0.02-1.23,0.379-2.264,1.198-3.101c0.817-0.836,1.813-1.264,2.988-1.283      c1.174-0.019,2.2,0.356,3.079,1.125l-0.926,1.404c-0.372-0.318-0.713-0.537-1.023-0.654c-0.31-0.118-0.644-0.173-1.003-0.167      c-0.694,0.011-1.276,0.26-1.744,0.746c-0.469,0.487-0.696,1.122-0.684,1.905c0.012,0.784,0.25,1.407,0.714,1.871      c0.464,0.463,1.012,0.69,1.644,0.68c0.632-0.01,1.156-0.142,1.574-0.394l-0.036-2.279L148.18,5.833z"></path>
			</g>
		</g>
	</g>
	<g>
		<defs>
			<rect id="SVGID_19_" width="300" height="125"></rect>
		</defs>
		<clipPath id="SVGID_20_">
			<use xlink:href="#SVGID_19_" overflow="visible"></use>
		</clipPath>
	</g>
	<g>
		<defs>
			<rect id="SVGID_21_" width="300" height="125"></rect>
		</defs>
		<clipPath id="SVGID_22_">
			<use xlink:href="#SVGID_21_" overflow="visible"></use>
		</clipPath>
		<g clip-path="url(#SVGID_22_)">
			<g>
				<path d="M160.08,3.562l-4.071-0.082l-0.033,1.709l3.662,0.074l-0.031,1.579l-3.662-0.074l-0.034,1.721l4.201,0.084l-0.032,1.638      l-6.026-0.122l0.163-8.296l5.897,0.119L160.08,3.562z"></path>
			</g>
		</g>
	</g>
	<g>
		<defs>
			<rect id="SVGID_23_" width="300" height="125"></rect>
		</defs>
		<clipPath id="SVGID_24_">
			<use xlink:href="#SVGID_23_" overflow="visible"></use>
		</clipPath>
		<g clip-path="url(#SVGID_24_)">
			<g>
				<path d="M167.707,2.223l1.976,0.09l-3.648,8.141l-1.544-0.07l-2.921-8.438l1.976,0.089l1.85,5.372L167.707,2.223z"></path>
			</g>
		</g>
	</g>
	<g>
		<defs>
			<rect id="SVGID_25_" width="300" height="125"></rect>
		</defs>
		<clipPath id="SVGID_26_">
			<use xlink:href="#SVGID_25_" overflow="visible"></use>
		</clipPath>
		<g clip-path="url(#SVGID_26_)">
			<g>
				<path d="M177.193,4.492l-4.063-0.288l-0.117,1.705l3.654,0.259l-0.108,1.576l-3.654-0.259l-0.119,1.717l4.191,0.297      l-0.111,1.634l-6.012-0.426l0.569-8.278l5.884,0.417L177.193,4.492z"></path>
			</g>
		</g>
	</g>
	<g>
		<defs>
			<rect id="SVGID_27_" width="300" height="125"></rect>
		</defs>
		<clipPath id="SVGID_28_">
			<use xlink:href="#SVGID_27_" overflow="visible"></use>
		</clipPath>
		<g clip-path="url(#SVGID_28_)">
			<g>
				<path d="M184.343,8.855l1.78,3.156l-2.236-0.218l-1.554-2.812l-1.259-0.123l-0.251,2.636l-1.816-0.178l0.786-8.261l3.087,0.302      c1.265,0.124,2.147,0.429,2.645,0.915c0.499,0.486,0.702,1.21,0.611,2.171C186.01,7.766,185.412,8.57,184.343,8.855z       M184.282,6.267c0.043-0.445-0.045-0.762-0.262-0.95c-0.218-0.188-0.616-0.311-1.199-0.368l-1.362-0.133l-0.233,2.446      l1.327,0.13c0.622,0.061,1.055,0,1.3-0.183C184.097,7.026,184.24,6.712,184.282,6.267z"></path>
			</g>
		</g>
	</g>
</g>
<g>
	<path d="M189.506,13.125l0.394-3.206l-2.208-5.259l1.963,0.241l1.384,3.235l2.125-2.805l1.962,0.241l-3.413,4.568l-0.394,3.206   L189.506,13.125z"></path>
</g>
<g>
	<path d="M199.113,14.416l1.312-8.075l3.141,0.511c0.548,0.089,1.009,0.23,1.384,0.426c0.376,0.195,0.646,0.421,0.809,0.677   c0.296,0.475,0.4,0.974,0.315,1.497c-0.103,0.632-0.383,1.068-0.843,1.31c-0.154,0.086-0.262,0.138-0.32,0.156   s-0.162,0.047-0.311,0.085c0.482,0.19,0.846,0.479,1.086,0.871c0.24,0.391,0.32,0.84,0.237,1.349   c-0.091,0.562-0.364,1.027-0.819,1.396c-0.528,0.428-1.348,0.552-2.455,0.372L199.113,14.416z M202.399,13.385   c0.516,0.083,0.913,0.083,1.19-0.002c0.28-0.086,0.449-0.315,0.51-0.688c0.061-0.374-0.035-0.643-0.289-0.806   c-0.256-0.164-0.683-0.295-1.283-0.393l-1.063-0.173l-0.302,1.86L202.399,13.385z M202.551,10.042   c0.5,0.081,0.881,0.087,1.141,0.019s0.419-0.282,0.478-0.64c0.058-0.358-0.015-0.613-0.219-0.765   c-0.205-0.151-0.573-0.271-1.104-0.356l-0.867-0.142l-0.283,1.744L202.551,10.042z"></path>
</g>
<g>
	<path d="M210.896,8.139l-1.492,8.043l-1.795-0.333l1.492-8.043L210.896,8.139z"></path>
</g>
<g>
	<path d="M215.324,17.367l-1.789-0.372l1.345-6.462l-2.268-0.472l0.322-1.547l6.324,1.315l-0.322,1.547l-2.269-0.472L215.324,17.367   z"></path>
</g>
</svg>
